<svg xmlns="http://www.w3.org/2000/svg" viewBox="0 0 720 420" font-family="system-ui,sans-serif" font-size="12">
  <rect width="720" height="420" fill="#0f1419"/>
  <text x="360" y="28" fill="#7dd3fc" text-anchor="middle" font-weight="bold">LLASO AMR Power &amp; Control (block diagram)</text>
  <rect x="40" y="60" width="120" height="50" rx="6" fill="#1e293b" stroke="#38bdf8"/>
  <text x="100" y="88" fill="#e2e8f0" text-anchor="middle">12.8V LiFePO4</text>
  <rect x="220" y="50" width="140" height="70" rx="6" fill="#1e293b" stroke="#a78bfa"/>
  <text x="290" y="78" fill="#e2e8f0" text-anchor="middle">Cytron MDD10A</text>
  <text x="290" y="96" fill="#94a3b8" text-anchor="middle">L/R track motors</text>
  <rect x="220" y="150" width="140" height="55" rx="6" fill="#1e293b" stroke="#34d399"/>
  <text x="290" y="178" fill="#e2e8f0" text-anchor="middle">Buck A (isolated)</text>
  <text x="290" y="194" fill="#94a3b8" text-anchor="middle">MCU + IMU 5V</text>
  <rect x="220" y="230" width="140" height="55" rx="6" fill="#1e293b" stroke="#34d399"/>
  <text x="290" y="258" fill="#e2e8f0" text-anchor="middle">Buck B (isolated)</text>
  <text x="290" y="274" fill="#94a3b8" text-anchor="middle">Sensors + camera</text>
  <rect x="420" y="140" width="120" height="50" rx="6" fill="#1e293b" stroke="#fbbf24"/>
  <text x="480" y="168" fill="#e2e8f0" text-anchor="middle">RPi / vision</text>
  <rect x="420" y="220" width="120" height="50" rx="6" fill="#1e293b" stroke="#fbbf24"/>
  <text x="480" y="248" fill="#e2e8f0" text-anchor="middle">TF-Luna ×3</text>
  <rect x="580" y="60" width="100" height="40" rx="6" fill="#1e293b" stroke="#f87171"/>
  <text x="630" y="85" fill="#e2e8f0" text-anchor="middle">TVS + bulk C</text>
  <line x1="160" y1="85" x2="220" y2="85" stroke="#64748b" stroke-width="2"/>
  <line x1="160" y1="85" x2="160" y2="177" stroke="#64748b" stroke-width="2"/>
  <line x1="160" y1="177" x2="220" y2="177" stroke="#64748b" stroke-width="2"/>
  <line x1="160" y1="257" x2="220" y2="257" stroke="#64748b" stroke-width="2"/>
  <line x1="360" y1="165" x2="420" y2="165" stroke="#64748b" stroke-width="2"/>
  <line x1="360" y1="255" x2="420" y2="245" stroke="#64748b" stroke-width="2"/>
  <line x1="290" y1="50" x2="630" y2="80" stroke="#64748b" stroke-dasharray="4"/>
  <text x="360" y="360" fill="#94a3b8" text-anchor="middle">FMEA NCR-001: isolation + TVS between motor return and logic rails</text>
  <text x="360" y="380" fill="#64748b" text-anchor="middle">Detail: nasa-hunch-rover/cad_model/hardware_specification_sheet.md</text>
</svg>
