o Axle3
v 0.1970443687438965 0.15602973937988282 0.12764027190208435
v 0.19634297943115234 0.15602973937988282 0.13408938479423524
v 0.20434299087524416 0.15602973937988282 0.13408938479423524
f 1 2 3
v 0.21455478286743165 0.15602973937988282 0.11551417422294617
v 0.20692140197753905 0.15602973937988282 0.11122452449798584
v 0.21030566787719726 0.15602973937988282 0.11902935099601746
f 4 5 6
v 0.24036630249023438 0.15602973937988282 0.11713809561729431
v 0.24812284088134767 0.15602973937988282 0.11345840644836426
v 0.24317859268188477 0.15602973937988282 0.10925871562957763
f 7 8 9
v 0.2481695137023926 0.15602973937988282 0.13684671950340271
v 0.256167121887207 0.15602973937988282 0.13733295512199403
v 0.2481695137023926 0.15602973937988282 0.13133205485343932
f 10 11 12
v 0.23046537017822266 0.15602973937988282 0.15569970798492433
v 0.23744712448120117 0.15602973937988282 0.16195868682861328
v 0.23571012115478515 0.15602973937988282 0.15399558138847352
f 13 14 15
v 0.20706424331665038 0.15602973937988282 0.14468796801567077
v 0.1991157112121582 0.15602973937988282 0.14668605875968935
v 0.20246018981933595 0.15602973937988282 0.1522446138858795
f 16 17 18
v 0.20706424331665038 0.14402973175048828 0.14468796801567077
v 0.1991157112121582 0.14402973175048828 0.14668605875968935
v 0.2050341567993164 0.14402973175048828 0.1395605618953705
f 19 20 21
v 0.23046537017822266 0.14402973175048828 0.15569970798492433
v 0.23744712448120117 0.14402973175048828 0.16195868682861328
v 0.23119643783569335 0.14402973175048828 0.1636941833496094
f 22 23 24
v 0.2481695137023926 0.14402973175048828 0.13684671950340271
v 0.256167121887207 0.14402973175048828 0.13733295512199403
v 0.2547725830078125 0.14402973175048828 0.1436684329509735
f 25 26 27
v 0.24036630249023438 0.14402973175048828 0.11713809561729431
v 0.24812284088134767 0.14402973175048828 0.11345840644836426
v 0.24414136505126954 0.14402973175048828 0.12115810942649842
f 28 29 30
v 0.21455478286743165 0.14402973175048828 0.11551417422294617
v 0.20692140197753905 0.14402973175048828 0.11122452449798584
v 0.21229072189331055 0.14402973175048828 0.10758402538299561
f 31 32 33
v 0.1970443687438965 0.15602973937988282 0.12764027190208435
v 0.1991157112121582 0.14402973175048828 0.12149271559715272
v 0.1970443687438965 0.14402973175048828 0.12764027190208435
f 34 35 36
v 0.21831712341308593 0.15602973937988282 0.10518288803100587
v 0.21831712341308593 0.14402973175048828 0.10518288803100587
v 0.21229072189331055 0.15602973937988282 0.10758402538299561
f 37 38 39
v 0.24812284088134767 0.15602973937988282 0.11345840644836426
v 0.24812284088134767 0.14402973175048828 0.11345840644836426
v 0.24317859268188477 0.15602973937988282 0.10925871562957763
f 40 41 42
v 0.2547725830078125 0.15602973937988282 0.1436684329509735
v 0.2547725830078125 0.14402973175048828 0.1436684329509735
v 0.256167121887207 0.15602973937988282 0.13733295512199403
f 43 44 45
v 0.23119643783569335 0.15602973937988282 0.1636941833496094
v 0.23119643783569335 0.14402973175048828 0.1636941833496094
v 0.23744712448120117 0.15602973937988282 0.16195868682861328
f 46 47 48
v 0.20246018981933595 0.15602973937988282 0.1522446138858795
v 0.20246018981933595 0.14402973175048828 0.1522446138858795
v 0.20692140197753905 0.15602973937988282 0.1569542474746704
f 49 50 51
v 0.20706424331665038 0.0035297346115112306 0.14468796801567077
v 0.20706424331665038 0.14402973175048828 0.14468796801567077
v 0.2050341567993164 0.0035297346115112306 0.1395605618953705
f 52 53 54
v 0.23046537017822266 0.0035297346115112306 0.15569970798492433
v 0.23046537017822266 0.14402973175048828 0.15569970798492433
v 0.22496158218383788 0.0035297346115112306 0.15604597282409668
f 55 56 57
v 0.2481695137023926 0.0035297346115112306 0.13684671950340271
v 0.2481695137023926 0.14402973175048828 0.13684671950340271
v 0.2467980728149414 0.0035297346115112306 0.14218812775611878
f 58 59 60
v 0.23571012115478515 0.0035297346115112306 0.11418319296836853
v 0.23571012115478515 0.14402973175048828 0.11418319296836853
v 0.24036630249023438 0.0035297346115112306 0.11713809561729431
f 61 62 63
v 0.21030566787719726 0.0035297346115112306 0.11902935099601746
v 0.21030566787719726 0.14402973175048828 0.11902935099601746
v 0.21455478286743165 0.0035297346115112306 0.11551417422294617
f 64 65 66
v 0.2050341567993164 0.0035297346115112306 0.12861820769309998
v 0.1970443687438965 0.0035297346115112306 0.12764027190208435
v 0.20434299087524416 0.0035297346115112306 0.13408938479423524
f 67 68 69
v 0.22496158218383788 0.0035297346115112306 0.11213279914855957
v 0.2247188148498535 0.0035297346115112306 0.10413338375091553
v 0.21831712341308593 0.0035297346115112306 0.10518288803100587
f 70 71 72
v 0.2467980728149414 0.0035297346115112306 0.12599064421653747
v 0.2547725830078125 0.0035297346115112306 0.12451034140586853
v 0.252048698425293 0.0035297346115112306 0.11862277102470398
f 73 74 75
v 0.24414136505126954 0.0035297346115112306 0.14702066254615784
v 0.252048698425293 0.0035297346115112306 0.14955600333213806
v 0.2467980728149414 0.0035297346115112306 0.14218812775611878
f 76 77 78
v 0.21954461669921876 0.0035297346115112306 0.15501262855529785
v 0.21229072189331055 0.0035297346115112306 0.16059474658966064
v 0.21831712341308593 0.0035297346115112306 0.1629958863258362
f 79 80 81
v 0.1970443687438965 -0.008470263481140137 0.1405384976863861
v 0.19634297943115234 -0.008470263481140137 0.13408938479423524
v 0.20434299087524416 -0.008470263481140137 0.13408938479423524
f 82 83 84
v 0.21455478286743165 -0.008470263481140137 0.15266460013389588
v 0.20692140197753905 -0.008470263481140137 0.1569542474746704
v 0.21030566787719726 -0.008470263481140137 0.1491494233608246
f 85 86 87
v 0.24036630249023438 -0.008470263481140137 0.15104067873954774
v 0.24812284088134767 -0.008470263481140137 0.15472037029266358
v 0.24317859268188477 -0.008470263481140137 0.15892005634307863
f 88 89 90
v 0.2481695137023926 -0.008470263481140137 0.13133205485343932
v 0.256167121887207 -0.008470263481140137 0.13733295512199403
v 0.2481695137023926 -0.008470263481140137 0.13684671950340271
f 91 92 93
v 0.23046537017822266 -0.008470263481140137 0.11247906875610351
v 0.23744712448120117 -0.008470263481140137 0.10622008514404298
v 0.23571012115478515 -0.008470263481140137 0.11418319296836853
f 94 95 96
v 0.20706424331665038 -0.008470263481140137 0.12349080634117127
v 0.1991157112121582 -0.008470263481140137 0.12149271559715272
v 0.20246018981933595 -0.008470263481140137 0.11593415808677673
f 97 98 99
v 0.20246018981933595 0.0035297346115112306 0.11593415808677673
v 0.20246018981933595 -0.008470263481140137 0.11593415808677673
v 0.1991157112121582 0.0035297346115112306 0.12149271559715272
f 100 101 102
v 0.23119643783569335 0.0035297346115112306 0.10448459339141845
v 0.23119643783569335 -0.008470263481140137 0.10448459339141845
v 0.2247188148498535 0.0035297346115112306 0.10413338375091553
f 103 104 105
v 0.2547725830078125 0.0035297346115112306 0.12451034140586853
v 0.2547725830078125 -0.008470263481140137 0.12451034140586853
v 0.252048698425293 0.0035297346115112306 0.11862277102470398
f 106 107 108
v 0.24812284088134767 0.0035297346115112306 0.15472037029266358
v 0.24812284088134767 -0.008470263481140137 0.15472037029266358
v 0.252048698425293 0.0035297346115112306 0.14955600333213806
f 109 110 111
v 0.21831712341308593 0.0035297346115112306 0.1629958863258362
v 0.21831712341308593 -0.008470263481140137 0.1629958863258362
v 0.2247188148498535 0.0035297346115112306 0.16404538822174072
f 112 113 114
v 0.1970443687438965 0.0035297346115112306 0.1405384976863861
v 0.1970443687438965 -0.008470263481140137 0.1405384976863861
v 0.1991157112121582 0.0035297346115112306 0.14668605875968935
f 115 116 117
v 0.21455478286743165 -0.1489702606201172 0.15266460013389588
v 0.21455478286743165 -0.008470263481140137 0.15266460013389588
v 0.21030566787719726 -0.1489702606201172 0.1491494233608246
f 118 119 120
v 0.24036630249023438 -0.1489702606201172 0.15104067873954774
v 0.24036630249023438 -0.008470263481140137 0.15104067873954774
v 0.23571012115478515 -0.1489702606201172 0.15399558138847352
f 121 122 123
v 0.2467980728149414 -0.1489702606201172 0.12599064421653747
v 0.2467980728149414 -0.008470263481140137 0.12599064421653747
v 0.2481695137023926 -0.1489702606201172 0.13133205485343932
f 124 125 126
v 0.22496158218383788 -0.1489702606201172 0.11213279914855957
v 0.22496158218383788 -0.008470263481140137 0.11213279914855957
v 0.23046537017822266 -0.1489702606201172 0.11247906875610351
f 127 128 129
v 0.2050341567993164 -0.1489702606201172 0.12861820769309998
v 0.2050341567993164 -0.008470263481140137 0.12861820769309998
v 0.20706424331665038 -0.1489702606201172 0.12349080634117127
f 130 131 132
v 0.21030566787719726 -0.1489702606201172 0.11902935099601746
v 0.20246018981933595 -0.1489702606201172 0.11593415808677673
v 0.20706424331665038 -0.1489702606201172 0.12349080634117127
f 133 134 135
v 0.23571012115478515 -0.1489702606201172 0.11418319296836853
v 0.24317859268188477 -0.1489702606201172 0.10925871562957763
v 0.23744712448120117 -0.1489702606201172 0.10622008514404298
f 136 137 138
v 0.2481695137023926 -0.1489702606201172 0.13133205485343932
v 0.2547725830078125 -0.1489702606201172 0.12451034140586853
v 0.2467980728149414 -0.1489702606201172 0.12599064421653747
f 139 140 141
v 0.23571012115478515 -0.1489702606201172 0.15399558138847352
v 0.24317859268188477 -0.1489702606201172 0.15892005634307863
v 0.24036630249023438 -0.1489702606201172 0.15104067873954774
f 142 143 144
v 0.21030566787719726 -0.1489702606201172 0.1491494233608246
v 0.20246018981933595 -0.1489702606201172 0.1522446138858795
v 0.20692140197753905 -0.1489702606201172 0.1569542474746704
f 145 146 147
v 0.2050341567993164 -0.16097026824951172 0.1395605618953705
v 0.1970443687438965 -0.16097026824951172 0.1405384976863861
v 0.20434299087524416 -0.16097026824951172 0.13408938479423524
f 148 149 150
v 0.22496158218383788 -0.16097026824951172 0.15604597282409668
v 0.2247188148498535 -0.16097026824951172 0.16404538822174072
v 0.21831712341308593 -0.16097026824951172 0.1629958863258362
f 151 152 153
v 0.2467980728149414 -0.16097026824951172 0.14218812775611878
v 0.2547725830078125 -0.16097026824951172 0.1436684329509735
v 0.252048698425293 -0.16097026824951172 0.14955600333213806
f 154 155 156
v 0.24414136505126954 -0.16097026824951172 0.12115810942649842
v 0.252048698425293 -0.16097026824951172 0.11862277102470398
v 0.2467980728149414 -0.16097026824951172 0.12599064421653747
f 157 158 159
v 0.21954461669921876 -0.16097026824951172 0.1131661434173584
v 0.21229072189331055 -0.16097026824951172 0.10758402538299561
v 0.21831712341308593 -0.16097026824951172 0.10518288803100587
f 160 161 162
v 0.19634297943115234 -0.1489702606201172 0.13408938479423524
v 0.1970443687438965 -0.16097026824951172 0.12764027190208435
v 0.19634297943115234 -0.16097026824951172 0.13408938479423524
f 163 164 165
v 0.21229072189331055 -0.1489702606201172 0.10758402538299561
v 0.21229072189331055 -0.16097026824951172 0.10758402538299561
v 0.20692140197753905 -0.1489702606201172 0.11122452449798584
f 166 167 168
v 0.24317859268188477 -0.1489702606201172 0.10925871562957763
v 0.24317859268188477 -0.16097026824951172 0.10925871562957763
v 0.23744712448120117 -0.1489702606201172 0.10622008514404298
f 169 170 171
v 0.256167121887207 -0.1489702606201172 0.13733295512199403
v 0.256167121887207 -0.16097026824951172 0.13733295512199403
v 0.256167121887207 -0.1489702606201172 0.13084581446647645
f 172 173 174
v 0.23744712448120117 -0.1489702606201172 0.16195868682861328
v 0.23744712448120117 -0.16097026824951172 0.16195868682861328
v 0.24317859268188477 -0.1489702606201172 0.15892005634307863
f 175 176 177
v 0.20692140197753905 -0.1489702606201172 0.1569542474746704
v 0.20692140197753905 -0.16097026824951172 0.1569542474746704
v 0.21229072189331055 -0.1489702606201172 0.16059474658966064
f 178 179 180
v 0.2050341567993164 -0.18497026443481446 0.1395605618953705
v 0.20706424331665038 -0.16097026824951172 0.14468796801567077
v 0.2050341567993164 -0.16097026824951172 0.1395605618953705
f 181 182 183
v 0.22496158218383788 -0.18497026443481446 0.15604597282409668
v 0.22496158218383788 -0.16097026824951172 0.15604597282409668
v 0.21954461669921876 -0.18497026443481446 0.15501262855529785
f 184 185 186
v 0.2467980728149414 -0.18497026443481446 0.14218812775611878
v 0.2467980728149414 -0.16097026824951172 0.14218812775611878
v 0.24414136505126954 -0.18497026443481446 0.14702066254615784
f 187 188 189
v 0.24036630249023438 -0.18497026443481446 0.11713809561729431
v 0.24036630249023438 -0.16097026824951172 0.11713809561729431
v 0.24414136505126954 -0.18497026443481446 0.12115810942649842
f 190 191 192
v 0.21455478286743165 -0.18497026443481446 0.11551417422294617
v 0.21455478286743165 -0.16097026824951172 0.11551417422294617
v 0.21954461669921876 -0.18497026443481446 0.1131661434173584
f 193 194 195
v 0.2050341567993164 0.15602973937988282 0.1395605618953705
v 0.20706424331665038 0.18002973556518556 0.14468796801567077
v 0.2050341567993164 0.18002973556518556 0.1395605618953705
f 196 197 198
v 0.22496158218383788 0.15602973937988282 0.15604597282409668
v 0.22496158218383788 0.18002973556518556 0.15604597282409668
v 0.21954461669921876 0.15602973937988282 0.15501262855529785
f 199 200 201
v 0.2467980728149414 0.15602973937988282 0.14218812775611878
v 0.2467980728149414 0.18002973556518556 0.14218812775611878
v 0.24414136505126954 0.15602973937988282 0.14702066254615784
f 202 203 204
v 0.24036630249023438 0.15602973937988282 0.11713809561729431
v 0.24036630249023438 0.18002973556518556 0.11713809561729431
v 0.24414136505126954 0.15602973937988282 0.12115810942649842
f 205 206 207
v 0.21455478286743165 0.15602973937988282 0.11551417422294617
v 0.21455478286743165 0.18002973556518556 0.11551417422294617
v 0.21954461669921876 0.15602973937988282 0.1131661434173584
f 208 209 210
v 0.22496158218383788 0.18002973556518556 0.15604597282409668
v 0.23046537017822266 0.18002973556518556 0.15569970798492433
v 0.21954461669921876 0.18002973556518556 0.15501262855529785
f 211 212 213
v 0.24036630249023438 0.18002973556518556 0.15104067873954774
v 0.23571012115478515 0.18002973556518556 0.11418319296836853
v 0.23571012115478515 0.18002973556518556 0.15399558138847352
f 214 215 216
v 0.2050341567993164 0.18002973556518556 0.12861820769309998
v 0.20434299087524416 0.18002973556518556 0.13408938479423524
v 0.23571012115478515 0.18002973556518556 0.15399558138847352
f 217 218 219
v 0.23571012115478515 -0.18497026443481446 0.15399558138847352
v 0.20434299087524416 -0.18497026443481446 0.13408938479423524
v 0.2050341567993164 -0.18497026443481446 0.12861820769309998
f 220 221 222
v 0.23046537017822266 -0.18497026443481446 0.15569970798492433
v 0.21954461669921876 -0.18497026443481446 0.15501262855529785
v 0.23571012115478515 -0.18497026443481446 0.15399558138847352
f 223 224 225