o Body1
v 0.05316032600402832 -0.1224592833518982 0.0360044059753418
v 0.04461629581451416 -0.13068059492111206 0.04187892532348633
v 0.05051410865783691 -0.1224592833518982 0.043689580917358396
f 1 2 3
v 0.035168220520019534 -0.16296888875961305 0.03178431129455567
v 0.038609816551208494 -0.17107809591293335 0.04047009086608887
v 0.029026796340942383 -0.1549712805747986 0.031196504592895507
f 4 5 6
v 0.041366755485534666 -0.1549712805747986 0.03280704116821289
v 0.04467078876495362 -0.13875169324874878 0.04189367866516113
v 0.03872053337097168 -0.1549712805747986 0.04049221611022949
f 7 8 9
v 0.0412560338973999 -0.138864474773407 0.03278491592407227
v 0.041366755485534666 -0.1549712805747986 0.03280704116821289
v 0.0412560338973999 -0.17107809591293335 0.03278491592407227
f 10 11 12
v 0.07392923069000244 -0.14697367238998413 0.046155086517333986
v 0.06838594150543213 -0.14697367238998413 0.05209952926635742
v 0.07908374500274658 -0.138864474773407 0.049545312881469725
f 13 14 15
v 0.08864936542510987 -0.18748328733444214 0.05732837295532227
v 0.07849840831756592 -0.17119087743759157 0.059255491256713866
v 0.08310608577728272 -0.18748328733444214 0.0632728157043457
f 16 17 18
v 0.08399791431427002 -0.1792619757652283 0.05327540016174317
v 0.08404168796539307 -0.17119087743759157 0.05331104850769043
v 0.08864936542510987 -0.18748328733444214 0.05732837295532227
f 19 20 21
v 0.1097961540222168 -0.13068059492111206 0.08564899063110351
v 0.10231429290771485 -0.13068059492111206 0.08882485008239746
v 0.11239697647094726 -0.1224592833518982 0.0912434802055359
f 22 23 24
v 0.1068240089416504 -0.17107809591293335 0.08024261093139648
v 0.09934214305877685 -0.17107809591293335 0.08341847038269043
v 0.10349404525756836 -0.16296888875961305 0.07504894828796387
f 25 26 27
v 0.1098216552734375 -0.13875169324874878 0.0856993637084961
v 0.10233979415893554 -0.13875169324874878 0.08887522315979005
v 0.10688164901733399 -0.1549712805747986 0.08033969497680664
f 28 29 30
v 0.1097961540222168 -0.13068059492111206 0.08564899063110351
v 0.1098216552734375 -0.13875169324874878 0.0856993637084961
v 0.10688164901733399 -0.1549712805747986 0.08033969497680664
f 31 32 33
v 0.11741191101074219 -0.1549712805747986 0.10744742727279663
v 0.11155352783203125 -0.17107809591293335 0.11942711210250855
v 0.11062390518188477 -0.16296888875961305 0.11332805967330933
f 34 35 36
v 0.12019931030273438 -0.17119087743759157 0.12577320909500123
v 0.11207255554199219 -0.17119087743759157 0.12563135957717897
v 0.12029698562622071 -0.18748328733444214 0.13188549852371217
f 37 38 39
v 0.11875067901611329 -0.16296888875961305 0.11346991395950318
v 0.11875067901611329 -0.14697367238998413 0.11346991395950318
v 0.11968028259277344 -0.138864474773407 0.11956896638870239
f 40 41 42
v 0.11542960357666016 -0.138864474773407 0.16072450256347656
v 0.10806313705444336 -0.138864474773407 0.1572894606590271
v 0.11340064239501953 -0.13068059492111206 0.16655081844329833
f 43 44 45
v 0.11340064239501953 -0.1792619757652283 0.16655081844329833
v 0.10603415679931641 -0.1792619757652283 0.16311577653884887
v 0.11542960357666016 -0.17107809591293335 0.16072450256347656
f 46 47 48
v 0.11098340225219727 -0.1224592833518982 0.17222705459594728
v 0.1133802719116211 -0.13875169324874878 0.16660347080230714
v 0.11340064239501953 -0.13068059492111206 0.16655081844329833
f 49 50 51
v 0.08606664371490479 -0.1224592833518982 0.20529272174835206
v 0.08525117588043213 -0.13068059492111206 0.1949561176300049
v 0.08073419284820557 -0.1224592833518982 0.19915844535827637
f 52 53 54
v 0.09871740055084229 -0.16296888875961305 0.19182114696502686
v 0.08947450351715087 -0.17107809591293335 0.19045877075195314
v 0.10229716491699219 -0.1549712805747986 0.18679642295837404
f 55 56 57
v 0.09473242473602295 -0.1549712805747986 0.19667787170410156
v 0.08521115016937256 -0.13875169324874878 0.19499593353271485
v 0.08939997386932373 -0.1549712805747986 0.1905435905456543
f 58 59 60
v 0.09480694484710693 -0.138864474773407 0.19659304714202883
v 0.09473242473602295 -0.1549712805747986 0.19667787170410156
v 0.09480694484710693 -0.17107809591293335 0.19659304714202883
f 61 62 63
v 0.06689144802093507 -0.14697367238998413 0.21820377922058107
v 0.0645150442123413 -0.14697367238998413 0.2104309425354004
v 0.06137816143035889 -0.138864474773407 0.2209726104736328
f 64 65 66
v 0.049855019569396974 -0.18748328733444214 0.22536514854431153
v 0.05326157283782959 -0.17119087743759157 0.21561060523986816
v 0.04747862529754639 -0.18748328733444214 0.2175923023223877
f 67 68 69
v 0.05569072914123535 -0.1792619757652283 0.22336335754394532
v 0.05563796710968018 -0.17119087743759157 0.223383451461792
v 0.049855019569396974 -0.18748328733444214 0.22536514854431153
f 70 71 72
v 0.014755253314971925 -0.13068059492111206 0.2295184955596924
v 0.015745808601379394 -0.13068059492111206 0.22145108795166016
v 0.0086098690032959 -0.1224592833518982 0.2289736328125
f 73 74 75
v 0.020923392295837402 -0.17107809591293335 0.2296477279663086
v 0.021913945198059084 -0.17107809591293335 0.2215803108215332
v 0.027086207389831543 -0.16296888875961305 0.22936073875427246
f 76 77 78
v 0.014698884010314942 -0.13875169324874878 0.22951539611816407
v 0.01568943691253662 -0.13875169324874878 0.22144797897338866
v 0.02081049156188965 -0.1549712805747986 0.2296491012573242
f 79 80 81
v 0.014755253314971925 -0.13068059492111206 0.2295184955596924
v 0.014698884010314942 -0.13875169324874878 0.22951539611816407
v 0.02081049156188965 -0.1549712805747986 0.2296491012573242
f 82 83 84
v -0.007930620193481445 -0.1549712805747986 0.22521470642089844
v -0.015376141548156738 -0.17107809591293335 0.21415135955810546
v -0.009629400253295898 -0.16296888875961305 0.21639581298828126
f 85 86 87
v -0.02519491958618164 -0.17119087743759157 0.21846578216552734
v -0.021008689880371093 -0.17119087743759157 0.21149872398376465
v -0.03053715515136719 -0.18748328733444214 0.2154942283630371
f 88 89 90
v -0.013815629959106446 -0.16296888875961305 0.22336287117004394
v -0.013815629959106446 -0.14697367238998413 0.22336287117004394
v -0.019562371253967287 -0.138864474773407 0.221118408203125
f 91 92 93
v -0.05307877349853516 -0.138864474773407 0.1968594512939453
v -0.046420705795288085 -0.138864474773407 0.19219741916656494
v -0.05711002159118653 -0.13068059492111206 0.1921891555786133
f 94 95 96
v -0.05711002159118653 -0.1792619757652283 0.1921891555786133
v -0.05045195388793945 -0.1792619757652283 0.1875271282196045
v -0.05307877349853516 -0.17107809591293335 0.1968594512939453
f 97 98 99
v -0.06081717300415039 -0.1224592833518982 0.18725765800476074
v -0.05714543628692627 -0.13875169324874878 0.19214518642425538
v -0.05711002159118653 -0.13068059492111206 0.1921891555786133
f 100 101 102
v -0.07699450302124024 -0.1224592833518982 0.14914626932144165
v -0.067635009765625 -0.13068059492111206 0.15360835409164428
v -0.06901583480834961 -0.1224592833518982 0.14759537315368654
f 103 104 105
v -0.07165315437316895 -0.16296888875961305 0.1668379316329956
v -0.06585184860229493 -0.17107809591293335 0.1595145378112793
v -0.06909149932861328 -0.1549712805747986 0.17245046710968018
f 106 107 108
v -0.07386671829223633 -0.1549712805747986 0.16095848178863525
v -0.06764946746826173 -0.13875169324874878 0.1535537848472595
v -0.0658880500793457 -0.1549712805747986 0.1594075880050659
f 109 110 111
v -0.07383051681518554 -0.138864474773407 0.16106543397903442
v -0.07386671829223633 -0.1549712805747986 0.16095848178863525
v -0.07383051681518554 -0.17107809591293335 0.16106543397903442
f 112 113 114
v -0.07858820724487305 -0.14697367238998413 0.12608453130722047
v -0.07066853332519532 -0.14697367238998413 0.12791293478012086
v -0.07822943496704102 -0.138864474773407 0.11992547845840454
f 115 116 117
v -0.07627192306518554 -0.18748328733444214 0.10774987077713014
v -0.06952751922607422 -0.17119087743759157 0.11557730531692505
v -0.06835224914550782 -0.18748328733444214 0.10957827425003051
f 118 119 120
v -0.0774561767578125 -0.1792619757652283 0.11380463933944703
v -0.07744719314575195 -0.17119087743759157 0.11374890184402466
v -0.07627192306518554 -0.18748328733444214 0.10774987077713014
f 121 122 123
v -0.06231894302368164 -0.13068059492111206 0.0752759132385254
v -0.05582763481140137 -0.13068059492111206 0.08016746139526368
v -0.05877438354492188 -0.1224592833518982 0.07022628402709961
f 124 125 126
v -0.06551493453979493 -0.17107809591293335 0.08055306053161622
v -0.05902362632751465 -0.17107809591293335 0.08544460868835449
v -0.0683477954864502 -0.16296888875961305 0.08603371238708496
f 127 128 129
v -0.06228807258605957 -0.13875169324874878 0.07522863960266113
v -0.0557967643737793 -0.13875169324874878 0.08012019729614257
v -0.06545967864990235 -0.1549712805747986 0.08045459365844727
f 130 131 132
v -0.06231894302368164 -0.13068059492111206 0.0752759132385254
v -0.06228807258605957 -0.13875169324874878 0.07522863960266113
v -0.06545967864990235 -0.1549712805747986 0.08045459365844727
f 133 134 135
v -0.04724881935119629 -0.1549712805747986 0.05778126335144043
v -0.033944910049438476 -0.17107809591293335 0.05686492538452149
v -0.03876204299926758 -0.16296888875961305 0.06071952438354492
f 136 137 138
v -0.032771928787231445 -0.17119087743759157 0.04620440101623535
v -0.02883139419555664 -0.17119087743759157 0.053313308715820316
v -0.027527368545532227 -0.18748328733444214 0.04306366539001465
f 139 140 141
v -0.042702577590942384 -0.16296888875961305 0.053610616683959965
v -0.042702577590942384 -0.14697367238998413 0.053610616683959965
v -0.037885444641113285 -0.138864474773407 0.049756017684936524
f 142 143 144
v -0.01498430061340332 -0.1224592833518982 0.04597683525085449
v -0.005990312576293945 -0.1224592833518982 0.042703290939331055
v -0.011227992057800293 -0.1549712805747986 0.044479509353637696
f 145 146 147
v -0.005990312576293945 -0.18748327779769897 0.042703290939331055
v 0.0005900354385375977 -0.17107809591293335 0.04095651245117188
v 0.0032965798377990723 -0.18748327779769897 0.04038780784606934
f 148 149 150
v -0.033944910049438476 -0.138864474773407 0.05686492538452149
v -0.039245880126953125 -0.1224592833518982 0.061137157440185545
v -0.03170367527008057 -0.1224592833518982 0.05524453735351562
f 151 152 153
v -0.04613082695007324 -0.18748327779769897 0.06778586959838867
v -0.04613082695007324 -0.1224592833518982 0.06778586959838867
v -0.04330828475952148 -0.1549712805747986 0.06489017105102539
f 154 155 156
v -0.061856487274169925 -0.14697367238998413 0.09092525815963745
v -0.06212862777709961 -0.1224592833518982 0.09150358533859253
v -0.05902362632751465 -0.138864474773407 0.08544460868835449
f 157 158 159
v -0.06764946746826173 -0.13875169324874878 0.1535537848472595
v -0.06764946746826173 -0.17119087743759157 0.1535537848472595
v -0.0658880500793457 -0.1549712805747986 0.1594075880050659
f 160 161 162
v -0.07001426506042481 -0.18748327779769897 0.11900406694412231
v -0.07030976104736328 -0.17107809591293335 0.12175388193130493
v -0.0695364933013916 -0.1792619757652283 0.11563304281234742
f 163 164 165
v -0.05415910530090332 -0.1224592833518982 0.18259562587738037
v -0.0504873685836792 -0.17119087743759157 0.1874831590652466
v -0.0504873685836792 -0.13875169324874878 0.1874831590652466
f 166 167 168
v -0.06342680740356446 -0.18748327779769897 0.16587625122070312
v -0.06111283111572266 -0.1549712805747986 0.17089957332611083
v -0.06367448616027832 -0.16296888875961305 0.16528703784942628
f 169 170 171
v -0.03428581047058105 -0.1224592833518982 0.2031750259399414
v -0.041617773056030274 -0.1224592833518982 0.19702278232574463
v -0.03746068286895752 -0.1549712805747986 0.20067063426971435
f 172 173 174
v -0.041617773056030274 -0.18748327779769897 0.19702278232574463
v -0.046420705795288085 -0.17107809591293335 0.19219741916656494
v -0.04826648998260498 -0.18748327779769897 0.1901378355026245
f 175 176 177
v -0.015376141548156738 -0.138864474773407 0.21415135955810546
v -0.009025795936584473 -0.1224592833518982 0.21660602188110353
v -0.017900059700012207 -0.1224592833518982 0.2130205879211426
f 178 179 180
v 0.00017463159561157226 -0.18748327779769897 0.21924419975280762
v 0.00017463159561157226 -0.1224592833518982 0.21924419975280762
v -0.0037443904876708987 -0.1549712805747986 0.2182476577758789
f 181 182 183
v 0.028076760292053225 -0.14697367238998413 0.22129332160949708
v 0.02871367645263672 -0.1224592833518982 0.221239839553833
v 0.021913945198059084 -0.138864474773407 0.2215803108215332
f 184 185 186
v 0.08521115016937256 -0.13875169324874878 0.19499593353271485
v 0.08521115016937256 -0.17119087743759157 0.19499593353271485
v 0.08939997386932373 -0.1549712805747986 0.1905435905456543
f 187 188 189
v 0.056472613334655766 -0.18748327779769897 0.21431876754760742
v 0.0590017671585083 -0.17107809591293335 0.213199764251709
v 0.053314330101013184 -0.1792619757652283 0.21559051132202148
f 190 191 192
v 0.10361693572998047 -0.1224592833518982 0.1687920126914978
v 0.10601378631591797 -0.17119087743759157 0.1631684265136719
v 0.10601378631591797 -0.13875169324874878 0.1631684265136719
f 193 194 195
v 0.09377138805389404 -0.18748327779769897 0.18517776584625245
v 0.09696471881866456 -0.1549712805747986 0.18066214179992676
v 0.09338494968414307 -0.16296888875961305 0.18568687057495117
f 196 197 198
v 0.11150258255004883 -0.1224592833518982 0.141291531085968
v 0.10984055709838868 -0.1224592833518982 0.1507173237800598
v 0.11092114639282227 -0.1549712805747986 0.14529324865341187
f 199 200 201
v 0.10984055709838868 -0.18748327779769897 0.1507173237800598
v 0.10806313705444336 -0.17107809591293335 0.1572894606590271
v 0.10720236968994142 -0.18748327779769897 0.15991775131225586
f 202 203 204
v 0.11155352783203125 -0.138864474773407 0.11942711210250855
v 0.11050414276123047 -0.1224592833518982 0.11270022249221802
v 0.11183619689941407 -0.1224592833518982 0.12217827653884888
f 205 206 207
v 0.10818865966796876 -0.18748327779769897 0.10341332769393921
v 0.10818865966796876 -0.1224592833518982 0.10341332769393921
v 0.10928513717651367 -0.1549712805747986 0.10730557298660279
f 208 209 210
v 0.09601218891143799 -0.14697367238998413 0.07822481727600097
v 0.09564741802215576 -0.1224592833518982 0.07769997215270996
v 0.09934214305877685 -0.138864474773407 0.08341847038269043
f 211 212 213
v 0.026380574226379395 -0.1549712805747986 0.03888167953491211
v 0.031887886047363284 -0.18748327779769897 0.03938937759399414
v 0.022340003967285155 -0.18748327779769897 0.03872172927856445
f 214 215 216
v 0.012774633884429933 -0.1224592833518982 0.03905575370788574
v 0.022340003967285155 -0.18748327779769897 0.03872172927856445
v 0.012774633884429933 -0.18748328733444214 0.03905575370788574
f 217 218 219
v 0.05051410865783691 -0.1224592833518982 0.043689580917358396
v 0.04467078876495362 -0.17119087743759157 0.04189367866516113
v 0.04467078876495362 -0.13875169324874878 0.04189367866516113
f 220 221 222
v 0.06783923816680908 -0.18748327779769897 0.05176842308044434
v 0.06301455211639405 -0.1549712805747986 0.049064594268798827
v 0.06838594150543213 -0.16296888875961305 0.05209952926635742
f 223 224 225
v -0.00011836576461791992 -0.138864474773407 0.03285944557189942
v 0.0005900354385375977 -0.138864474773407 0.04095651245117188
v 0.005941853046417237 -0.13068059492111206 0.03170342063903809
f 226 227 228
v 0.005941853046417237 -0.1792619757652283 0.03170342063903809
v 0.006650254249572754 -0.1792619757652283 0.03980049705505371
v -0.00011836576461791992 -0.17107809591293335 0.03285944557189942
f 229 230 231
v 0.012066232681274415 -0.1224592833518982 0.03095868682861328
v 0.005997635841369629 -0.13875169324874878 0.03169474220275879
v 0.005941853046417237 -0.13068059492111206 0.03170342063903809
f 232 233 234
v 0.10373912048339844 -0.1143312816619873 0.12288668012619018
v 0.10656693649291993 -0.11472909736633301 0.1297536120414734
v 0.106002685546875 -0.11472909736633301 0.12031479692459107
f 235 236 237
v -0.03816632556915283 -0.1143312816619873 0.18905828094482421
v -0.04460708427429199 -0.1143312816619873 0.18182085609436036
v -0.043716495513916015 -0.11472909736633301 0.18680934524536133
f 238 239 240
v -0.05668164539337158 -0.1143312816619873 0.09938849782943726
v -0.05258718299865723 -0.1143312816619873 0.09060789442062378
v -0.05891848373413086 -0.11472909736633301 0.0982170901298523
f 241 242 243
v 0.0032965798377990723 -0.1224592833518982 0.04038780784606934
v 0.012809304714202881 -0.11994759130477906 0.03945205307006836
v 0.012774633884429933 -0.1224592833518982 0.03905575370788574
f 244 245 246
v -0.039245880126953125 -0.1224592833518982 0.061137157440185545
v -0.03351060199737549 -0.11994759130477906 0.05703759765625
v -0.03170367527008057 -0.1224592833518982 0.05524453735351562
f 247 248 249
v -0.06571406173706054 -0.1224592833518982 0.10037784910202027
v -0.06376235771179199 -0.11994759130477906 0.09627554273605347
v -0.06212862777709961 -0.1224592833518982 0.09150358533859253
f 250 251 252
v -0.06901583480834961 -0.1224592833518982 0.14759537315368654
v -0.06898655700683594 -0.11994759130477906 0.14554514265060425
v -0.07034788894653321 -0.1224592833518982 0.13811732149124145
f 253 254 255
v -0.041617773056030274 -0.1224592833518982 0.19702278232574463
v -0.040608747482299805 -0.11994759130477906 0.19741221046447754
v -0.04763601112365723 -0.11994759130477906 0.19025464153289795
f 256 257 258
v 0.00017463159561157226 -0.1224592833518982 0.21924419975280762
v 0.0037009806632995607 -0.11994759130477906 0.21958051300048828
v -0.0060339121818542485 -0.11994759130477906 0.2171628246307373
f 259 260 261
v 0.04747862529754639 -0.1224592833518982 0.2175923023223877
v 0.053058235168457035 -0.11994759130477906 0.21526231384277345
v 0.04349881362915039 -0.11994759130477906 0.21830053901672364
f 262 263 264
v 0.08761913967132569 -0.1224592833518982 0.19250972843170167
v 0.09284531307220459 -0.11994759130477906 0.18573649501800538
v 0.08629249286651612 -0.11994759130477906 0.1933308277130127
f 265 266 267
v 0.10984055709838868 -0.1224592833518982 0.1507173237800598
v 0.10698828887939453 -0.11994759130477906 0.15931334114074708
v 0.10720236968994142 -0.1224592833518982 0.15991775131225586
f 268 269 270
v 0.10818865966796876 -0.1224592833518982 0.10341332769393921
v 0.10949040603637696 -0.11994759130477906 0.10983077383041383
v 0.11050414276123047 -0.1224592833518982 0.11270022249221802
f 271 272 273
v 0.07577412319183349 -0.1224592833518982 0.057120567321777345
v 0.07018892002105713 -0.11994759130477906 0.05370242691040039
v 0.07829844188690185 -0.11994759130477906 0.05960572814941406
f 274 275 276
v 0.031887886047363284 -0.1224592833518982 0.03938937759399414
v 0.022834741592407226 -0.11994759130477906 0.03912961578369141
v 0.0328348035812378 -0.11994759130477906 0.03991201972961426
f 277 278 279
v 0.012809304714202881 -0.11994759130477906 0.03945205307006836
v 0.012909926891326905 -0.11768176603317261 0.04060215568542481
v 0.022834741592407226 -0.11994759130477906 0.03912961578369141
f 280 281 282
v 0.1088327522277832 -0.1158835940361023 0.1297432074546814
v 0.11063090515136718 -0.11768176603317261 0.12973494863510132
v 0.11003993225097657 -0.11768176603317261 0.11984917497634888
f 283 284 285
v 0.10825360488891601 -0.1158835940361023 0.12005519247055053
v 0.10836503219604493 -0.11768176603317261 0.11008840894699097
v 0.10661219787597656 -0.1158835940361023 0.1104896912574768
f 286 287 288
v 0.1112788314819336 -0.11994759130477906 0.13974746561050416
v 0.1101307601928711 -0.11768176603317261 0.13962573385238647
v 0.10967330169677734 -0.11994759130477906 0.1496487603187561
f 289 290 291
v 0.1020448226928711 -0.11472909736633301 0.1576415858268738
v 0.09816995334625245 -0.1143312816619873 0.16090710020065307
v 0.098526837348938 -0.11472909736633301 0.16641845798492433
f 292 293 294
v 0.1005803747177124 -0.1158835940361023 0.16737603759765626
v 0.098526837348938 -0.11472909736633301 0.16641845798492433
v 0.09600041103363037 -0.1158835940361023 0.1759327278137207
f 295 296 297
v 0.09753661823272705 -0.11768176603317261 0.17686733818054198
v 0.09050693225860595 -0.1158835940361023 0.18393365001678466
v 0.09193100643157959 -0.11768176603317261 0.18503158187866212
f 298 299 300
v 0.09284531307220459 -0.11994759130477906 0.18573649501800538
v 0.09193100643157959 -0.11768176603317261 0.18503158187866212
v 0.08629249286651612 -0.11994759130477906 0.1933308277130127
f 301 302 303
v 0.07560801219940186 -0.11472909736633301 0.19614524459838867
v 0.06852995586395264 -0.1143312816619873 0.19839299297332763
v 0.06801477146148682 -0.11472909736633301 0.20178015804290772
f 304 305 306
v 0.0692627592086792 -0.1158835940361023 0.2036713228225708
v 0.06801477146148682 -0.11472909736633301 0.20178015804290772
v 0.0608800859451294 -0.1158835940361023 0.20856253242492676
f 307 308 309
v 0.06169938755035401 -0.11768176603317261 0.2101632080078125
v 0.05201022815704346 -0.1158835940361023 0.21250188446044924
v 0.0526484603881836 -0.11768176603317261 0.2141829833984375
f 310 311 312
v 0.053058235168457035 -0.11994759130477906 0.21526231384277345
v 0.0526484603881836 -0.11768176603317261 0.2141829833984375
v 0.04349881362915039 -0.11994759130477906 0.21830053901672364
f 313 314 315
v 0.033244192123413084 -0.1158835940361023 0.21734592056274415
v 0.03292267036437988 -0.11472909736633301 0.2151030216217041
v 0.023575818061828614 -0.1158835940361023 0.21819179153442383
f 316 317 318
v 0.013732807159423828 -0.11768176603317261 0.219761625289917
v 0.003917102336883545 -0.11768176603317261 0.2184464225769043
v 0.0037009806632995607 -0.11994759130477906 0.21958051300048828
f 319 320 321
v 0.023502981185913086 -0.11472909736633301 0.21592713928222657
v 0.014049803733825684 -0.11472909736633301 0.2157100067138672
v 0.013873066425323486 -0.1158835940361023 0.21796893692016603
f 322 323 324
v -0.005165451049804688 -0.1158835940361023 0.21434076881408692
v -0.004499004364013672 -0.11472909736633301 0.2121751651763916
v -0.0142701153755188 -0.1158835940361023 0.21097949600219726
f 325 326 327
v -0.014984860897064209 -0.11768176603317261 0.21262952423095705
v -0.023841679573059084 -0.11768176603317261 0.20819842910766603
v -0.024414327621459963 -0.11994759130477906 0.2092008934020996
f 328 329 330
v -0.029765503883361816 -0.11472909736633301 0.199534255027771
v -0.037092025756835935 -0.11472909736633301 0.19355664825439453
v -0.03861895370483399 -0.1158835940361023 0.19523069953918457
f 331 332 333
v -0.03861895370483399 -0.1158835940361023 0.19523069953918457
v -0.046768892288208005 -0.11768176603317261 0.18949243164062501
v -0.039830735206604004 -0.11768176603317261 0.1965592393875122
f 334 335 336
v -0.04955849456787109 -0.11472909736633301 0.17937424278259279
v -0.05016407775878906 -0.1143312816619873 0.17388464546203614
v -0.05454711723327637 -0.11472909736633301 0.17134160614013672
f 337 338 339
v -0.056534879684448244 -0.1158835940361023 0.17242916202545167
v -0.060717151641845706 -0.1158835940361023 0.16367121315002442
v -0.0623800163269043 -0.11768176603317261 0.1643555245399475
f 340 341 342
v -0.06344764518737793 -0.11994759130477906 0.16479487991333008
v -0.0623800163269043 -0.11768176603317261 0.1643555245399475
v -0.06674813079833984 -0.11994759130477906 0.15532280778884888
f 343 344 345
v -0.06607642936706543 -0.1158835940361023 0.14504577732086182
v -0.0638432388305664 -0.11472909736633301 0.14466257190704346
v -0.06718838500976562 -0.1158835940361023 0.13540438032150268
f 346 347 348
v -0.06898335266113281 -0.11768176603317261 0.13551168298721314
v -0.06902884292602539 -0.11768176603317261 0.1256083617210388
v -0.07018186378479004 -0.11994759130477906 0.12555005884170534
f 349 350 351
v -0.06397299575805664 -0.11472909736633301 0.11641064023971558
v -0.061947620391845704 -0.11472909736633301 0.10717443323135376
v -0.06413077163696289 -0.1158835940361023 0.10656791543960571
f 352 353 354
v -0.06413077163696289 -0.1158835940361023 0.10656791543960571
v -0.06269074249267578 -0.11768176603317261 0.09670507764816284
v -0.06586331176757812 -0.11768176603317261 0.10608657693862915
f 355 356 357
v -0.05000771331787109 -0.11472909736633301 0.0815692195892334
v -0.045949748039245605 -0.1158835940361023 0.07260054206848145
v -0.051875632286071775 -0.1158835940361023 0.08028669929504395
f 358 359 360
v -0.044234254837036135 -0.11472909736633301 0.07408076858520508
v -0.041491997718811034 -0.1143312816619873 0.07476233100891114
v -0.03767204570770264 -0.11472909736633301 0.06727289772033691
f 361 362 363
v -0.03767204570770264 -0.11472909736633301 0.06727289772033691
v -0.03921428966522217 -0.1158835940361023 0.06561294174194336
v -0.044234254837036135 -0.11472909736633301 0.07408076858520508
f 364 365 366
v -0.031751020431518555 -0.1158835940361023 0.05940869903564453
v -0.040438220977783206 -0.11768176603317261 0.06429559326171876
v -0.03921428966522217 -0.1158835940361023 0.06561294174194336
f 367 368 369
v -0.024556754112243652 -0.11768176603317261 0.05251001930236816
v -0.025138590812683107 -0.11994759130477906 0.05151285743713379
v -0.032822602272033694 -0.11768176603317261 0.05796470260620117
f 370 371 372
v -0.005251429557800293 -0.11472909736633301 0.04835577583312988
v -0.0008185772895812988 -0.1143312816619873 0.04967459297180176
v 0.003904141902923584 -0.11472909736633301 0.04599246597290039
f 373 374 375
v 0.003904141902923584 -0.11472909736633301 0.04599246597290039
v 0.013066646575927734 -0.1158835940361023 0.042393489837646486
v 0.0034595484733581545 -0.1158835940361023 0.04377069091796875
f 376 377 378
v 0.022808229446411133 -0.11768176603317261 0.04028380966186523
v 0.013066646575927734 -0.1158835940361023 0.042393489837646486
v 0.022766940116882326 -0.1158835940361023 0.042081514358520505
f 379 380 381
v 0.03268148136138916 -0.11768176603317261 0.04105629539489746
v 0.022766940116882326 -0.1158835940361023 0.042081514358520505
v 0.032442681312561034 -0.1158835940361023 0.04283853149414062
f 382 383 384
v 0.04240982723236084 -0.11768176603317261 0.042910219192504886
v 0.05125241947174072 -0.1158835940361023 0.04750998115539551
v 0.05187518310546875 -0.11768176603317261 0.04582309341430664
f 385 386 387
v 0.052275025367736816 -0.11994759130477906 0.04474004364013672
v 0.05187518310546875 -0.11768176603317261 0.04582309341430664
v 0.06147920322418213 -0.11994759130477906 0.04872706985473633
f 388 389 390
v 0.0673547716140747 -0.11472909736633301 0.058084245681762695
v 0.07241721820831298 -0.1143312816619873 0.06479655838012695
v 0.07499946308135987 -0.11472909736633301 0.06364917373657226
f 391 392 393
v 0.07643185329437256 -0.1158835940361023 0.06189354515075684
v 0.07499946308135987 -0.11472909736633301 0.06364917373657226
v 0.08360239696502686 -0.1158835940361023 0.06843390083312989
f 394 395 396
v 0.08488551807403565 -0.11768176603317261 0.06717413520812988
v 0.09000992488861084 -0.1158835940361023 0.07572338676452636
v 0.09142384243011475 -0.11768176603317261 0.07461242294311524
f 397 398 399
v 0.09819038105010987 -0.11472909736633301 0.09316417074203491
v 0.10023503017425538 -0.1158835940361023 0.0921877703666687
v 0.09365182590484619 -0.11472909736633301 0.08486892318725586
f 400 401 402
v 0.10392848205566406 -0.1158835940361023 0.10116280889511109
v 0.10562653732299805 -0.11768176603317261 0.10057113981246948
v 0.10185767364501953 -0.11768176603317261 0.0914128909111023
f 403 404 405
v 0.07135084819793701 -0.1143312816619873 0.12572028493881227
v 0.10402091217041017 -0.1143312816619873 0.13257090425491333
v 0.10373912048339844 -0.1143312816619873 0.12288668012619018
f 406 407 408
v 0.08609539699554443 -0.1143312816619873 0.0784747371673584
v 0.06006325435638428 -0.1143312816619873 0.09798185682296753
v 0.0916523904800415 -0.1143312816619873 0.08641094779968261
f 409 410 411
v 0.03759130668640137 -0.1143312816619873 0.04855697250366211
v 0.027688695907592775 -0.1143312816619873 0.07982471084594726
v 0.03511140060424805 -0.1143312816619873 0.08142181015014649
f 412 413 414
v -0.01001514720916748 -0.1143312816619873 0.05272200202941894
v 0.005166601657867431 -0.1143312816619873 0.08179513549804687
v -0.0008185772895812988 -0.1143312816619873 0.04967459297180176
f 415 416 417
v -0.05258718299865723 -0.1143312816619873 0.09060789442062378
v -0.023563158988952636 -0.1143312816619873 0.10529821729660034
v -0.047501037597656254 -0.1143312816619873 0.08236199951171876
f 418 419 420
v -0.060846670150756836 -0.1143312816619873 0.1469949493408203
v -0.02863741683959961 -0.1143312816619873 0.14206839418411255
v -0.02986253547668457 -0.1143312816619873 0.13457530832290648
f 421 422 423
v -0.03816632556915283 -0.1143312816619873 0.18905828094482421
v -0.01857494878768921 -0.1143312816619873 0.1623137435913086
v -0.04460708427429199 -0.1143312816619873 0.18182085609436036
f 424 425 426
v 0.01348303508758545 -0.1143312816619873 0.21314277267456055
v 0.02137744140625 -0.1143312816619873 0.18094385242462158
v 0.013799612045288087 -0.1143312816619873 0.18047088718414306
f 427 428 429
v 0.06028405857086182 -0.1143312816619873 0.20347913360595704
v 0.04335430812835694 -0.1143312816619873 0.17563868618011474
v 0.051503455162048344 -0.1143312816619873 0.20757360076904297
f 430 431 432
v 0.09816995334625245 -0.1143312816619873 0.16090710020065307
v 0.0650514669418335 -0.1143312816619873 0.15499738073348998
v 0.09407549571990967 -0.1143312816619873 0.16968770599365235
f 433 434 435
v 0.08609539699554443 -0.19561128425598145 0.0784747371673584
v 0.0796546335220337 -0.19561128425598145 0.0712373218536377
v 0.0819855661392212 -0.19521346855163574 0.07002130126953125
f 436 437 438
v -0.0008185772895812988 -0.19561128425598145 0.04967459297180176
v -0.01001514720916748 -0.19561128425598145 0.05272200202941894
v -0.005251429557800293 -0.19521346855163574 0.04835577583312988
f 439 440 441
v 0.04230688762664795 -0.19561128425598145 0.21062100982666015
v 0.05120600414276123 -0.19521346855163574 0.21038358306884766
v 0.042194525718688966 -0.19521346855163574 0.21324765777587892
f 442 443 444
v 0.0829803056716919 -0.19561128425598145 0.18553327178955079
v 0.08871250820159912 -0.19521346855163574 0.18255017852783204
v 0.08253529262542725 -0.19521346855163574 0.18970920658111573
f 445 446 447
v 0.10317650985717773 -0.19561128425598145 0.14222236251831055
v 0.10608941268920899 -0.19521346855163574 0.13919721937179566
v 0.10457591247558594 -0.19521346855163574 0.14853097534179688
f 448 449 450
v 0.013066646575927734 -0.19405897665023805 0.042393489837646486
v 0.013264126300811767 -0.19521346855163574 0.04465069389343262
v 0.0034595484733581545 -0.19405897665023805 0.04377069091796875
f 451 452 453
v 0.022834741592407226 -0.18999496984481812 0.03912961578369141
v 0.022340003967285155 -0.18748327779769897 0.03872172927856445
v 0.031887886047363284 -0.18748327779769897 0.03938937759399414
f 454 455 456
v 0.0328348035812378 -0.18999496984481812 0.03991201972961426
v 0.031887886047363284 -0.18748327779769897 0.03938937759399414
v 0.04131367874145508 -0.18748327779769897 0.0410514030456543
f 457 458 459
v 0.04240982723236084 -0.19226080465316772 0.042910219192504886
v 0.03268148136138916 -0.19226080465316772 0.04105629539489746
v 0.0328348035812378 -0.18999496984481812 0.03991201972961426
f 460 461 462
v 0.05125241947174072 -0.19405897665023805 0.04750998115539551
v 0.05046768856048584 -0.19521346855163574 0.04963557815551758
v 0.04197641563415527 -0.19405897665023805 0.044655376434326176
f 463 464 465
v 0.06015809726715088 -0.19405897665023805 0.051367698669433595
v 0.05125241947174072 -0.19405897665023805 0.04750998115539551
v 0.05187518310546875 -0.19226080465316772 0.04582309341430664
f 466 467 468
v 0.06858533573150635 -0.19405897665023805 0.05618169403076172
v 0.06096264553070069 -0.19226080465316772 0.04975955581665039
v 0.06956191730499267 -0.19226080465316772 0.05467182731628418
f 469 470 471
v 0.07643185329437256 -0.19405897665023805 0.06189354515075684
v 0.06956191730499267 -0.19226080465316772 0.05467182731628418
v 0.07756860446929932 -0.19226080465316772 0.060500265121459965
f 472 473 474
v 0.08360239696502686 -0.19405897665023805 0.06843390083312989
v 0.0819855661392212 -0.19521346855163574 0.07002130126953125
v 0.07643185329437256 -0.19405897665023805 0.06189354515075684
f 475 476 477
v 0.09142384243011475 -0.19226080465316772 0.07461242294311524
v 0.09710421276092529 -0.19226080465316772 0.08272483444213867
v 0.09557666492462158 -0.19405897665023805 0.08367351150512696
f 478 479 480
v 0.09710421276092529 -0.19226080465316772 0.08272483444213867
v 0.10185767364501953 -0.19226080465316772 0.0914128909111023
v 0.10023503017425538 -0.19405897665023805 0.0921877703666687
f 481 482 483
v 0.09819038105010987 -0.19521346855163574 0.09316417074203491
v 0.09625047397613526 -0.19561128425598145 0.09493862485885621
v 0.0916523904800415 -0.19561128425598145 0.08641094779968261
f 484 485 486
v 0.10178883743286134 -0.19521346855163574 0.101908362865448
v 0.09982745838165283 -0.19561128425598145 0.10394244527816773
v 0.09625047397613526 -0.19561128425598145 0.09493862485885621
f 487 488 489
v 0.10440352630615235 -0.19521346855163574 0.11099533414840698
v 0.10233498764038086 -0.19561128425598145 0.11330064630508423
v 0.09982745838165283 -0.19561128425598145 0.10394244527816773
f 490 491 492
v 0.106002685546875 -0.19521346855163574 0.12031479692459107
v 0.10233498764038086 -0.19561128425598145 0.11330064630508423
v 0.10440352630615235 -0.19521346855163574 0.11099533414840698
f 493 494 495
v 0.1112788314819336 -0.18999496984481812 0.13974746561050416
v 0.11217023086547852 -0.18748328733444214 0.1317436442375183
v 0.11150258255004883 -0.18748327779769897 0.141291531085968
f 496 497 498
v 0.10967330169677734 -0.18999496984481812 0.1496487603187561
v 0.10698828887939453 -0.18999496984481812 0.15931334114074708
v 0.10589463424682617 -0.19226080465316772 0.15894349431991578
f 499 500 501
v 0.10589463424682617 -0.19226080465316772 0.15894349431991578
v 0.10221007537841797 -0.19226080465316772 0.16813597774505615
v 0.1005803747177124 -0.19405897665023805 0.16737603759765626
f 502 503 504
v 0.10221007537841797 -0.19226080465316772 0.16813597774505615
v 0.09600041103363037 -0.19405897665023805 0.1759327278137207
v 0.1005803747177124 -0.19405897665023805 0.16737603759765626
f 505 506 507
v 0.09406467151641845 -0.19521346855163574 0.17475505447387696
v 0.09600041103363037 -0.19405897665023805 0.1759327278137207
v 0.08871250820159912 -0.19521346855163574 0.18255017852783204
f 508 509 510
v 0.08629249286651612 -0.18999496984481812 0.1933308277130127
v 0.08073419284820557 -0.18748328733444214 0.19915844535827637
v 0.07894400310516357 -0.18999496984481812 0.20015821075439452
f 511 512 513
v 0.07820597362518311 -0.19226080465316772 0.19927041149139404
v 0.07894400310516357 -0.18999496984481812 0.20015821075439452
v 0.07025316905975341 -0.19226080465316772 0.20517215824127197
f 514 515 516
v 0.07025316905975341 -0.19226080465316772 0.20517215824127197
v 0.0608800859451294 -0.19405897665023805 0.20856253242492676
v 0.0692627592086792 -0.19405897665023805 0.2036713228225708
f 517 518 519
v 0.0598477144241333 -0.19521346855163574 0.2065455541610718
v 0.0608800859451294 -0.19405897665023805 0.20856253242492676
v 0.05120600414276123 -0.19521346855163574 0.21038358306884766
f 520 521 522
v 0.04349881362915039 -0.18999496984481812 0.21830053901672364
v 0.03819173049926758 -0.18748327779769897 0.21990778541564943
v 0.03366317939758301 -0.18999496984481812 0.22026871299743653
f 523 524 525
v 0.023670727729797364 -0.18999496984481812 0.22114293670654298
v 0.019148308753967287 -0.18748327779769897 0.22157387351989746
v 0.013642754077911377 -0.18999496984481812 0.22091260528564455
f 526 527 528
v 0.013732807159423828 -0.19226080465316772 0.219761625289917
v 0.023633620262145997 -0.19226080465316772 0.21998903846740722
v 0.023670727729797364 -0.18999496984481812 0.22114293670654298
f 529 530 531
v 0.003917102336883545 -0.19226080465316772 0.2184464225769043
v 0.013732807159423828 -0.19226080465316772 0.219761625289917
v 0.013642754077911377 -0.18999496984481812 0.22091260528564455
f 532 533 534
v -0.0056943421363830566 -0.19226080465316772 0.21605939483642578
v 0.003917102336883545 -0.19226080465316772 0.2184464225769043
v 0.0037009806632995607 -0.18999496984481812 0.21958051300048828
f 535 536 537
v -0.014984860897064209 -0.19226080465316772 0.21262952423095705
v -0.0056943421363830566 -0.19226080465316772 0.21605939483642578
v -0.0060339121818542485 -0.18999496984481812 0.2171628246307373
f 538 539 540
v -0.023841679573059084 -0.19226080465316772 0.20819842910766603
v -0.014984860897064209 -0.19226080465316772 0.21262952423095705
v -0.015443757057189941 -0.18999496984481812 0.2136888942718506
f 541 542 543
v -0.03215728092193604 -0.19226080465316772 0.20281990623474122
v -0.023841679573059084 -0.19226080465316772 0.20819842910766603
v -0.024414327621459963 -0.18999496984481812 0.2092008934020996
f 544 545 546
v -0.039830735206604004 -0.19226080465316772 0.1965592393875122
v -0.03215728092193604 -0.19226080465316772 0.20281990623474122
v -0.032836735725402834 -0.18999496984481812 0.20375328636169435
f 547 548 549
v -0.046768892288208005 -0.19226080465316772 0.18949243164062501
v -0.039830735206604004 -0.19226080465316772 0.1965592393875122
v -0.040608747482299805 -0.18999496984481812 0.19741221046447754
f 550 551 552
v -0.05288753318786621 -0.19226080465316772 0.18170526123046876
v -0.04541831779479981 -0.19405897665023805 0.18830526447296142
v -0.046768892288208005 -0.19226080465316772 0.18949243164062501
f 553 554 555
v -0.05811238098144531 -0.19226080465316772 0.17329225158691405
v -0.051414554595947265 -0.19405897665023805 0.18067387199401855
v -0.05288753318786621 -0.19226080465316772 0.18170526123046876
f 556 557 558
v -0.0623800163269043 -0.19226080465316772 0.1643555245399475
v -0.056534879684448244 -0.19405897665023805 0.17242916202545167
v -0.05811238098144531 -0.19226080465316772 0.17329225158691405
f 559 560 561
v -0.06563864517211915 -0.19226080465316772 0.1550035653114319
v -0.060717151641845706 -0.19405897665023805 0.16367121315002442
v -0.0623800163269043 -0.19226080465316772 0.1643555245399475
f 562 563 564
v -0.06784869003295899 -0.19226080465316772 0.14534988975524904
v -0.06391058731079102 -0.19405897665023805 0.1545063338279724
v -0.06563864517211915 -0.19226080465316772 0.1550035653114319
f 565 566 567
v -0.06898335266113281 -0.19226080465316772 0.13551168298721314
v -0.06607642936706543 -0.19405897665023805 0.14504577732086182
v -0.06784869003295899 -0.19226080465316772 0.14534988975524904
f 568 569 570
v -0.06902884292602539 -0.19226080465316772 0.1256083617210388
v -0.06718838500976562 -0.19405897665023805 0.13540438032150268
v -0.06898335266113281 -0.19226080465316772 0.13551168298721314
f 571 572 573
v -0.06798460769653321 -0.19226080465316772 0.11576014852523804
v -0.06723295974731446 -0.19405897665023805 0.12569917058944702
v -0.06902884292602539 -0.19226080465316772 0.1256083617210388
f 574 575 576
v -0.06586331176757812 -0.19226080465316772 0.10608657693862915
v -0.06620960998535157 -0.19405897665023805 0.11604796743392945
v -0.06798460769653321 -0.19226080465316772 0.11576014852523804
f 577 578 579
v -0.06269074249267578 -0.19226080465316772 0.09670507764816284
v -0.06413077163696289 -0.19405897665023805 0.10656791543960571
v -0.06586331176757812 -0.19226080465316772 0.10608657693862915
f 580 581 582
v -0.05850537109375 -0.19226080465316772 0.08772952651977539
v -0.06269074249267578 -0.19226080465316772 0.09670507764816284
v -0.06376235771179199 -0.18999496984481812 0.09627554273605347
f 583 584 585
v -0.05000771331787109 -0.19521346855163574 0.0815692195892334
v -0.054922340393066406 -0.19521346855163574 0.08964734649658203
v -0.05692001152038574 -0.19405897665023805 0.08857809638977052
f 586 587 588
v -0.04122403430938721 -0.18999496984481812 0.06344979858398438
v -0.04613082695007324 -0.18748327779769897 0.06778586959838867
v -0.039245880126953125 -0.18748327779769897 0.061137157440185545
f 589 590 591
v -0.03351060199737549 -0.18999496984481812 0.05703759765625
v -0.03170367527008057 -0.18748327779769897 0.05524453735351562
v -0.025138590812683107 -0.18999496984481812 0.05151285743713379
f 592 593 594
v -0.025138590812683107 -0.18999496984481812 0.05151285743713379
v -0.024556754112243652 -0.19226080465316772 0.05251001930236816
v -0.03351060199737549 -0.18999496984481812 0.05703759765625
f 595 596 597
v -0.01574101495742798 -0.19226080465316772 0.047997756958007814
v -0.015011141777038575 -0.19405897665023805 0.04964113807678223
v -0.023650525093078613 -0.19405897665023805 0.05406314468383789
f 598 599 600
v -0.0064823942184448246 -0.19226080465316772 0.04448268508911133
v -0.015011141777038575 -0.19405897665023805 0.04964113807678223
v -0.01574101495742798 -0.19226080465316772 0.047997756958007814
f 601 602 603
v 0.0034595484733581545 -0.19405897665023805 0.04377069091796875
v 0.003904141902923584 -0.19521346855163574 0.04599246597290039
v -0.005937736511230469 -0.19405897665023805 0.04619639015197754
f 604 605 606
v 0.10317650985717773 -0.19561128425598145 0.14222236251831055
v 0.0704075689315796 -0.19561128425598145 0.14083357191085816
v 0.07144550037384033 -0.19561128425598145 0.1333122763633728
f 607 608 609
v 0.0829803056716919 -0.19561128425598145 0.18553327178955079
v 0.06085295391082764 -0.19561128425598145 0.16132349348068237
v 0.0889893503189087 -0.19561128425598145 0.1779335985183716
f 610 611 612
v 0.0328187198638916 -0.19561128425598145 0.21258016204833985
v 0.02894112777709961 -0.19561128425598145 0.18028211212158204
v 0.04230688762664795 -0.19561128425598145 0.21062100982666015
f 613 614 615
v -0.022992694854736328 -0.19561128425598145 0.20105602836608888
v -0.0073470335006713865 -0.19561128425598145 0.1724742088317871
v -0.0007248525619506836 -0.19561128425598145 0.17618823623657226
f 616 617 618
v -0.05476216125488281 -0.19561128425598145 0.16535697078704834
v -0.022929871559143066 -0.19561128425598145 0.15609426832199097
v -0.05016407775878906 -0.19561128425598145 0.17388464546203614
f 619 620 621
v -0.05972905921936035 -0.19561128425598145 0.10858506536483765
v -0.02677192497253418 -0.19561128425598145 0.11217943048477173
v -0.02891925621032715 -0.19561128425598145 0.11946202611923218
f 622 623 624
v -0.034641321182250974 -0.19561128425598145 0.06791164970397949
v -0.0142701678276062 -0.19561128425598145 0.09334240293502807
v -0.041491997718811034 -0.19561128425598145 0.07476233100891114
f 625 626 627
v 0.018321048736572264 -0.19561128425598145 0.04687104797363281
v 0.01254718017578125 -0.19561128425598145 0.08001348114013672
v 0.00866959285736084 -0.19561128425598145 0.04771544075012207
f 628 629 630
v 0.07241721820831298 -0.19561128425598145 0.06479655838012695
v 0.05483000946044922 -0.19561128425598145 0.09248091077804566
v 0.04883534145355225 -0.19561128425598145 0.08782138442993165
f 631 632 633
v 0.09982745838165283 -0.19561128425598145 0.10394244527816773
v 0.06779749584197999 -0.19561128425598145 0.11100040292739868
v 0.09625047397613526 -0.19561128425598145 0.09493862485885621
f 634 635 636
v 0.06441817951202393 -0.13465128469467164 0.10420132970809937
v 0.0843364019393921 -0.13465128469467164 0.09830316877365113
v 0.06779749584197999 -0.13465128469467164 0.11100040292739868
f 637 638 639
v 0.03511140060424805 -0.13465128469467164 0.08142181015014649
v 0.036742674827575685 -0.13465128469467164 0.0608505973815918
v 0.0453017635345459 -0.13465128469467164 0.06340218162536622
f 640 641 642
v 0.005166601657867431 -0.13465128469467164 0.08179513549804687
v 0.001379584789276123 -0.13465128469467164 0.0617148551940918
v 0.01254718017578125 -0.13465128469467164 0.08001348114013672
f 643 644 645
v -0.023563158988952636 -0.13465128469467164 0.10529821729660034
v -0.04432777690887451 -0.13465128469467164 0.1014476523399353
v -0.040217583656311034 -0.13465128469467164 0.09351828908920289
f 646 647 648
v -0.02986253547668457 -0.13465128469467164 0.13457530832290648
v -0.050323427200317385 -0.13465128469467164 0.12741765832901
v -0.02995718765258789 -0.13465128469467164 0.12698332166671752
f 649 650 651
v -0.01334170150756836 -0.13465128469467164 0.1678146848678589
v -0.026659634590148928 -0.13465128469467164 0.18316605186462404
v -0.0329307918548584 -0.13465128469467164 0.17680671787261965
f 652 653 654
v 0.02137744140625 -0.13465128469467164 0.18094385242462158
v 0.02248177242279053 -0.13465128469467164 0.20124656772613525
v 0.013557030677795411 -0.13465128469467164 0.20090371704101562
f 655 656 657
v 0.04988183689117432 -0.13465128469467164 0.17176072216033936
v 0.05651893329620362 -0.13465128469467164 0.1916150245666504
v 0.04335430812835694 -0.13465128469467164 0.17563868618011474
f 658 659 660
v 0.0704075689315796 -0.13465128469467164 0.14083357191085816
v 0.09090916347503662 -0.13465128469467164 0.14176354265213012
v 0.08890005779266358 -0.13465128469467164 0.15046595430374146
f 661 662 663
v 0.0704075689315796 -0.1752912859916687 0.14083357191085816
v 0.09090916347503662 -0.1752912859916687 0.14176354265213012
v 0.07144550037384033 -0.1752912859916687 0.1333122763633728
f 664 665 666
v 0.04988183689117432 -0.1752912859916687 0.17176072216033936
v 0.05651893329620362 -0.1752912859916687 0.1916150245666504
v 0.06394072246551513 -0.1752912859916687 0.18664656734466553
f 667 668 669
v 0.02137744140625 -0.1752912859916687 0.18094385242462158
v 0.03137911033630371 -0.1752912859916687 0.20046815490722655
v 0.02894112777709961 -0.1752912859916687 0.18028211212158204
f 670 671 672
v -0.01334170150756836 -0.1752912859916687 0.1678146848678589
v -0.026659634590148928 -0.1752912859916687 0.18316605186462404
v -0.019640892028808594 -0.1752912859916687 0.18868925666809083
f 673 674 675
v -0.02986253547668457 -0.1752912859916687 0.13457530832290648
v -0.050323427200317385 -0.1752912859916687 0.12741765832901
v -0.050105212211608886 -0.1752912859916687 0.13634631490707397
f 676 677 678
v -0.023563158988952636 -0.1752912859916687 0.10529821729660034
v -0.04432777690887451 -0.1752912859916687 0.1014476523399353
v -0.02677192497253418 -0.1752912859916687 0.11217943048477173
f 679 680 681
v 0.005166601657867431 -0.1752912859916687 0.08179513549804687
v 0.001379584789276123 -0.1752912859916687 0.0617148551940918
v -0.007044642448425293 -0.1752912859916687 0.06468149757385254
f 682 683 684
v 0.03511140060424805 -0.1752912859916687 0.08142181015014649
v 0.036742674827575685 -0.1752912859916687 0.0608505973815918
v 0.027688695907592775 -0.1752912859916687 0.07982471084594726
f 685 686 687
v 0.06441817951202393 -0.1752912859916687 0.10420132970809937
v 0.0843364019393921 -0.1752912859916687 0.09830316877365113
v 0.07984376621246338 -0.1752912859916687 0.09058405256271362
f 688 689 690
v 0.08782615375518799 -0.13465128469467164 0.10652449941635132
v 0.08782615375518799 -0.1752912859916687 0.10652449941635132
v 0.09025797557830811 -0.13465128469467164 0.11511837816238403
f 691 692 693
v 0.061129204750061034 -0.13465128469467164 0.07160634613037109
v 0.061129204750061034 -0.1752912859916687 0.07160634613037109
v 0.06814794254302979 -0.13465128469467164 0.07712955093383789
f 694 695 696
v 0.019006540298461914 -0.13465128469467164 0.05904903030395508
v 0.019006540298461914 -0.1752912859916687 0.05904903030395508
v 0.02793127727508545 -0.13465128469467164 0.05939188575744629
f 697 698 699
v -0.02245241451263428 -0.13465128469467164 0.0736490306854248
v -0.02245241451263428 -0.1752912859916687 0.0736490306854248
v -0.015030622959136963 -0.13465128469467164 0.06868057823181152
f 700 701 702
v -0.04741174507141113 -0.13465128469467164 0.10982964372634887
v -0.04741174507141113 -0.1752912859916687 0.10982964372634887
v -0.04432777690887451 -0.13465128469467164 0.1014476523399353
f 703 704 705
v -0.046337841033935546 -0.13465128469467164 0.15377109861373903
v -0.046337841033935546 -0.1752912859916687 0.15377109861373903
v -0.04876966285705567 -0.13465128469467164 0.1451772174835205
f 706 707 708
v -0.019640892028808594 -0.13465128469467164 0.18868925666809083
v -0.019640892028808594 -0.1752912859916687 0.18868925666809083
v -0.026659634590148928 -0.13465128469467164 0.18316605186462404
f 709 710 711
v 0.02248177242279053 -0.13465128469467164 0.20124656772613525
v 0.02248177242279053 -0.1752912859916687 0.20124656772613525
v 0.013557030677795411 -0.13465128469467164 0.20090371704101562
f 712 713 714
v 0.06394072246551513 -0.13465128469467164 0.18664656734466553
v 0.06394072246551513 -0.1752912859916687 0.18664656734466553
v 0.05651893329620362 -0.13465128469467164 0.1916150245666504
f 715 716 717
v 0.08890005779266358 -0.13465128469467164 0.15046595430374146
v 0.08890005779266358 -0.1752912859916687 0.15046595430374146
v 0.08581608486175538 -0.13465128469467164 0.15884794092178345
f 718 719 720
v 0.0704075689315796 -0.19561128425598145 0.14083357191085816
v 0.0704075689315796 -0.1752912859916687 0.14083357191085816
v 0.07144550037384033 -0.19561128425598145 0.1333122763633728
f 721 722 723
v 0.04988183689117432 -0.19561128425598145 0.17176072216033936
v 0.04988183689117432 -0.1752912859916687 0.17176072216033936
v 0.05575847816467285 -0.19561128425598145 0.16695319271087647
f 724 725 726
v 0.013799612045288087 -0.19561128425598145 0.18047088718414306
v 0.013799612045288087 -0.1752912859916687 0.18047088718414306
v 0.02137744140625 -0.19561128425598145 0.18094385242462158
f 727 728 729
v -0.01857494878768921 -0.19561128425598145 0.1623137435913086
v -0.01857494878768921 -0.1752912859916687 0.1623137435913086
v -0.01334170150756836 -0.19561128425598145 0.1678146848678589
f 730 731 732
v -0.02995718765258789 -0.19561128425598145 0.12698332166671752
v -0.02995718765258789 -0.1752912859916687 0.12698332166671752
v -0.02986253547668457 -0.19561128425598145 0.13457530832290648
f 733 734 735
v -0.0142701678276062 -0.19561128425598145 0.09334240293502807
v -0.0142701678276062 -0.1752912859916687 0.09334240293502807
v -0.019364645957946777 -0.19561128425598145 0.09897210454940795
f 736 737 738
v 0.02011086654663086 -0.19561128425598145 0.07935174560546875
v 0.02011086654663086 -0.1752912859916687 0.07935174560546875
v 0.01254718017578125 -0.19561128425598145 0.08001348114013672
f 739 740 741
v 0.05483000946044922 -0.19561128425598145 0.09248091077804566
v 0.05483000946044922 -0.1752912859916687 0.09248091077804566
v 0.04883534145355225 -0.19561128425598145 0.08782138442993165
f 742 743 744
v 0.07135084819793701 -0.13465128469467164 0.12572028493881227
v 0.07144550037384033 -0.1143312816619873 0.1333122763633728
v 0.07135084819793701 -0.1143312816619873 0.12572028493881227
f 745 746 747
v 0.06085295391082764 -0.13465128469467164 0.16132349348068237
v 0.06085295391082764 -0.1143312816619873 0.16132349348068237
v 0.0650514669418335 -0.13465128469467164 0.15499738073348998
f 748 749 750
v 0.02894112777709961 -0.13465128469467164 0.18028211212158204
v 0.02894112777709961 -0.1143312816619873 0.18028211212158204
v 0.03632170867919922 -0.13465128469467164 0.17850045776367188
f 751 752 753
v -0.0073470335006713865 -0.13465128469467164 0.1724742088317871
v -0.0073470335006713865 -0.1143312816619873 0.1724742088317871
v -0.0007248525619506836 -0.13465128469467164 0.17618823623657226
f 754 755 756
v -0.02863741683959961 -0.13465128469467164 0.14206839418411255
v -0.02863741683959961 -0.1143312816619873 0.14206839418411255
v -0.026309192657470705 -0.13465128469467164 0.14929519271850586
f 757 758 759
v -0.023563158988952636 -0.13465128469467164 0.10529821729660034
v -0.023563158988952636 -0.1143312816619873 0.10529821729660034
v -0.02677192497253418 -0.13465128469467164 0.11217943048477173
f 760 761 762
v 0.005166601657867431 -0.13465128469467164 0.08179513549804687
v 0.005166601657867431 -0.1143312816619873 0.08179513549804687
v -0.0018660001754760742 -0.13465128469467164 0.08465691184997559
f 763 764 765
v 0.042213160514831545 -0.13465128469467164 0.08410736656188965
v 0.042213160514831545 -0.1143312816619873 0.08410736656188965
v 0.03511140060424805 -0.13465128469467164 0.08142181015014649
f 766 767 768
v 0.06779749584197999 -0.13465128469467164 0.11100040292739868
v 0.06779749584197999 -0.1143312816619873 0.11100040292739868
v 0.06441817951202393 -0.13465128469467164 0.10420132970809937
f 769 770 771