o ChassisBase
v -0.2574750156402588 -0.07526026725769043 -0.017410613059997557
v -0.25744718742370604 -0.07510532855987549 -0.017465773582458495
v -0.25744718742370604 -0.07520509719848632 -0.01756554698944092
f 1 2 3
v -0.2569750232696533 -0.07526026725769043 0.007089394569396973
v -0.2570301837921143 -0.07510532855987549 0.007061566352844238
v -0.2571299571990967 -0.07520509719848632 0.007061566352844238
f 4 5 6
v -0.24782051277160644 -0.07473579406738282 -0.017410613059997557
v -0.24797500801086425 -0.07478473663330078 -0.01756510829925537
v -0.24797500801086425 -0.0747602653503418 -0.017410613059997557
f 7 8 9
v -0.24768112373352053 -0.07507624626159669 -0.017976943016052245
v -0.24782051277160644 -0.07526026725769043 -0.017935076713562013
v -0.24782051277160644 -0.07509819507598878 -0.017909403800964355
f 10 11 12
v -0.25710085105895997 -0.1497291374206543 -0.017530280113220217
v -0.2572465343475342 -0.14965106964111327 -0.017564078330993653
v -0.25719312858581544 -0.1496030044555664 -0.017702075004577638
f 13 14 15
v -0.24782051277160644 -0.07483595848083496 0.00689766788482666
v -0.24797500801086425 -0.07485575675964355 0.006883286476135254
v -0.24782051277160644 -0.07495199203491211 0.007013691902160645
f 16 17 18
v -0.2574438877105713 -0.14938609123229982 0.00670906925201416
v -0.2574750156402588 -0.14926026344299317 0.006589402198791504
v -0.2574505443572998 -0.1494147777557373 0.006589402198791504
f 19 20 21
v -0.24749948692321777 -0.14926026344299317 -0.018256102561950684
v -0.24757051658630372 -0.1494784641265869 -0.018082152366638182
v -0.24757051658630372 -0.14926026344299317 -0.018116713523864746
f 22 23 24
v -0.24768112373352053 -0.14985575675964355 0.006589402198791504
v -0.24757051658630372 -0.14996637344360353 0.006589402198791504
v -0.24768112373352053 -0.14982661247253418 0.006773404121398926
f 25 26 27
v -0.24782051277160644 -0.14975906372070313 0.006751469612121582
v -0.24768112373352053 -0.14985575675964355 0.006589402198791504
v -0.24768112373352053 -0.14982661247253418 0.006773404121398926
f 28 29 30
v -0.24797500801086425 -0.1494147777557373 -0.017886134147644044
v -0.2569750232696533 -0.1494147777557373 -0.017886134147644044
v -0.24797500801086425 -0.14926026344299317 -0.01791060543060303
f 31 32 33
v -0.2574750156402588 -0.14926026344299317 -0.017410613059997557
v -0.2574750156402588 -0.148569278717041 -0.01736167049407959
v -0.2574750156402588 -0.14826026916503907 -0.017410613059997557
f 34 35 36
v -0.24747501564025878 0.18194995880126955 -0.04935059642791748
v -0.24747501564025878 0.18359020233154297 -0.04908440685272217
v -0.24747501564025878 0.18301591873168946 -0.04925999736785889
f 37 38 39
v -0.24747501564025878 -0.07426026344299316 -0.017410613059997557
v -0.24747501564025878 0.03177667617797852 -0.014111910820007324
v -0.24747501564025878 -0.07430920600891114 -0.01771962261199951
f 40 41 42
v -0.25712951850891114 -0.07583596229553223 -0.016718874931335448
v -0.2569750232696533 -0.07585575580596925 -0.016704493522644043
v -0.25712951850891114 -0.07576146125793458 -0.01657267665863037
f 43 44 45
v -0.25726890754699705 -0.07607625007629394 0.006155747413635254
v -0.25712951850891114 -0.07595198631286622 0.006013707160949707
v -0.25712951850891114 -0.07609819412231446 0.006088189125061035
f 46 47 48
v -0.2573795337677002 -0.07496637344360352 -0.017410613059997557
v -0.25726890754699705 -0.07485575675964355 0.006589402198791504
v -0.25726890754699705 -0.07485575675964355 -0.017410613059997557
f 49 50 51
v -0.24657051277160644 -0.0756890106201172 -0.016825648307800294
v -0.24649948310852052 -0.07557624816894531 -0.01690756893157959
v -0.24657051277160644 -0.07558871746063232 -0.016628809928894043
f 52 53 54
v -0.2574505443572998 -0.14852153778076171 -0.017214709281921387
v -0.2573795337677002 -0.14847846031188966 -0.01708214855194092
v -0.2574505443572998 -0.14826026916503907 -0.01725609874725342
f 55 56 57
v -0.24649948310852052 -0.07626026630401611 0.006434887886047363
v -0.24647501182556153 -0.075951247215271 0.006540459632873535
v -0.24647501182556153 -0.07626026630401611 0.006589402198791504
f 58 59 60
v -0.24657051277160644 -0.07558871746063232 0.005807599067687988
v -0.24649948310852052 -0.0754147720336914 0.005589398384094239
v -0.24649948310852052 -0.07545615196228027 0.005850666999816894
f 61 62 63
v -0.2573795337677002 -0.14867530822753908 0.0061606492996215826
v -0.2574505443572998 -0.14875722885131837 0.006273411750793457
v -0.2573795337677002 -0.14847846031188966 0.006260937690734864
f 64 65 66
v -0.25726890754699705 -0.1488557529449463 0.005589398384094239
v -0.25726890754699705 -0.1488557529449463 -0.016410609245300294
v -0.2573795337677002 -0.14896636962890625 -0.016410609245300294
f 67 68 69
v -0.24682050895690918 -0.14826026916503907 -0.016935072898864745
v -0.24668111991882324 -0.14844428062438966 -0.01697695827484131
v -0.24668111991882324 -0.14826026916503907 -0.017006102561950683
f 70 71 72
v -0.24657051277160644 -0.14896636962890625 0.005589398384094239
v -0.24668111991882324 -0.1488557529449463 0.005589398384094239
v -0.24657051277160644 -0.14893181800842287 0.005807599067687988
f 73 74 75
v -0.24649948310852052 -0.14906437873840334 0.005850666999816894
v -0.24657051277160644 -0.14896636962890625 0.005589398384094239
v -0.24657051277160644 -0.14893181800842287 0.005807599067687988
f 76 77 78
v -0.24682050895690918 -0.14826026916503907 -0.016935072898864745
v -0.24682050895690918 -0.07626026630401611 -0.016935072898864745
v -0.24697502326965332 -0.14826026916503907 -0.01691060161590576
f 79 80 81
v -0.2574505443572998 -0.14826026916503907 -0.01725609874725342
v -0.2574505443572998 -0.07626026630401611 -0.01725609874725342
v -0.2574750156402588 -0.07626026630401611 -0.017410613059997557
f 82 83 84
v -0.24647501182556153 -0.19505048751831056 0.025649394035339355
v -0.24647501182556153 -0.19802089691162109 0.02386907482147217
v -0.24647501182556153 -0.19805027008056642 0.02339961910247803
f 85 86 87
v -0.24647501182556153 -0.07626026630401611 0.006589402198791504
v -0.24647501182556153 0.18094995498657226 0.025649394035339355
v -0.24647501182556153 -0.19505048751831056 0.025649394035339355
f 88 89 90
v -0.24747501564025878 0.03719311714172363 -0.015066977500915528
v -0.2474674243927002 0.03625199317932129 -0.01522959804534912
v -0.2474674243927002 0.038018598556518554 -0.0145866117477417
f 91 92 93
v -0.24647501182556153 0.03177667617797852 -0.005685416221618653
v -0.24648260307312012 0.03116527557373047 -0.006419135093688965
v -0.24648260307312012 0.03260541915893555 -0.0052107152938842775
f 94 95 96
v -0.24697502326965332 0.03914222717285156 -0.01311259365081787
v -0.24714601707458497 0.04003880500793457 -0.0116190824508667
v -0.24714601707458497 0.03916532516479492 -0.013131972312927247
f 97 98 99
v -0.24697502326965332 0.030613546371459962 -0.008188563346862793
v -0.24714601707458497 0.030281848907470703 -0.009898653984069824
v -0.24714601707458497 0.030585212707519533 -0.008178244590759278
f 100 101 102
v -0.24740802955627442 0.04024538993835449 -0.008103056907653809
v -0.24729641151428222 0.040120391845703124 -0.008148547172546388
v -0.24729641151428222 0.03923183441162109 -0.006609526634216309
f 103 104 105
v -0.2474674243927002 0.03260541915893555 -0.0145866117477417
v -0.24740802955627442 0.03129027366638184 -0.013273287773132324
v -0.24740802955627442 0.0326870059967041 -0.014445296287536621
f 106 107 108
v -0.2465419979095459 0.03622365951538086 -0.015068903923034668
v -0.2466536159515381 0.0344234561920166 -0.014937907218933106
v -0.2465419979095459 0.034400348663330076 -0.015068903923034668
f 109 110 111
v -0.24648260307312012 0.03945874214172363 -0.006419135093688965
v -0.2465419979095459 0.039333744049072264 -0.006524020195007325
v -0.24648260307312012 0.04039873123168945 -0.008047247886657715
f 112 113 114
v -0.2466536159515381 0.030503616333007813 -0.008148547172546388
v -0.24680401039123537 0.030281848907470703 -0.009898653984069824
v -0.24680401039123537 0.030585212707519533 -0.008178244590759278
f 115 116 117
v 0.1637285213470459 0.18710803985595703 -0.026215525627136232
v 0.16380653190612793 0.1870945167541504 -0.02633963680267334
v 0.16375518608093262 0.18723182678222658 -0.02639132595062256
f 118 119 120
v 0.11896135139465332 0.1870911407470703 -0.014808760643005372
v 0.11894717979431152 0.1869497299194336 -0.014793902397155763
v 0.11894861030578613 0.1869497299194336 -0.014792662620544433
f 121 122 123
v 0.14660838890075684 0.18718652725219728 -0.02519074535369873
v 0.14649568367004395 0.1871293640136719 -0.02526217555999756
v 0.1466322498321533 0.1870328140258789 -0.02511435604095459
f 124 125 126
v 0.16353488731384277 0.18555604934692382 -0.025846301078796388
v 0.16351754951477052 0.1856219482421875 -0.025913401603698732
v 0.16340295600891114 0.18554523468017578 -0.025811224937438964
f 127 128 129
v 0.16396053123474122 0.18555604934692382 -0.026169749259948732
v 0.16390054512023927 0.1856219482421875 -0.026204482078552246
v 0.16378469276428223 0.1856219482421875 -0.0260593900680542
f 130 131 132
v 0.13634254264831544 0.1869497299194336 -0.0075080785751342775
v 0.13634633827209472 0.18710424423217775 -0.007532301902770996
v 0.13634176063537598 0.1869497299194336 -0.007508250236511231
f 133 134 135
v 0.14680261421203614 0.18594972610473634 -0.025053797721862794
v 0.14680156517028808 0.1858544158935547 -0.02504460430145264
v 0.14689206886291503 0.18594972610473634 -0.025051012992858886
f 136 137 138
v 0.14638067054748535 0.1856997299194336 -0.02525200939178467
v 0.14633340644836426 0.18562183380126954 -0.02522269344329834
v 0.14640010643005372 0.18562183380126954 -0.025133543968200684
f 139 140 141
v 0.14654371070861816 0.18555587768554688 -0.02493603801727295
v 0.14663446235656738 0.18550436019897462 -0.024811907768249514
v 0.14665830421447754 0.18555587768554688 -0.024889002799987795
f 142 143 144
v 0.1633923511505127 0.18579523086547853 -0.02599255657196045
v 0.14689206886291503 0.18594972610473634 -0.025051012992858886
v 0.14689349937438964 0.18579523086547853 -0.02502657985687256
f 145 146 147
v 0.13629907417297363 0.18554523468017578 -0.007306586265563965
v 0.13632282066345214 0.1856558418273926 -0.0074146375656127935
v 0.13631568717956544 0.1856224822998047 -0.007388964653015137
f 148 149 150
v 0.1322775535583496 0.1856558418273926 -0.025541678428649902
v 0.13228861618041993 0.1856224822998047 -0.0255674467086792
v 0.1322523193359375 0.1856997299194336 -0.025525980949401856
f 151 152 153
v 0.14595174598693847 0.18547025680541993 -0.025714255332946776
v 0.14588186073303222 0.18544973373413087 -0.025356112480163576
v 0.1460334186553955 0.18547420501708986 -0.025386096000671387
f 154 155 156
v 0.13736537742614746 0.18547420501708986 -0.03241505718231201
v 0.13870494651794435 0.18550554275512696 -0.03243130779266357
v 0.13736537742614746 0.18554523468017578 -0.03255442714691162
f 157 158 159
v 0.14230352210998534 0.18550554275512696 -0.03141812419891357
v 0.1411501865386963 0.18550554275512696 -0.031925421714782715
v 0.14112127113342285 0.18547027587890624 -0.031842223167419435
f 160 161 162
v 0.13351904678344728 0.1856997299194336 -0.03196652507781982
v 0.13495065498352052 0.18576284408569335 -0.032486411094665525
v 0.1335055522918701 0.18576284408569335 -0.031993990898132325
f 163 164 165
v 0.1364241199493408 0.18576284408569335 -0.032694159507751466
v 0.13642223167419434 0.18585456848144533 -0.03272116756439209
v 0.13495065498352052 0.18576284408569335 -0.032486411094665525
f 166 167 168
v 0.13123382377624512 0.18585531234741212 -0.02977746105194092
v 0.13129548835754395 0.18594972610473634 -0.02992495632171631
v 0.13096337127685548 0.18594972610473634 -0.029010993003845215
f 169 170 171
v 0.13169142532348632 0.18544973373413087 -0.026828642845153808
v 0.1322962646484375 0.18547027587890624 -0.025875731468200686
v 0.1325268726348877 0.18544973373413087 -0.025860987663269042
f 172 173 174
v 0.13120857048034668 0.18550554275512696 -0.027405959129333496
v 0.13120337295532228 0.18547420501708986 -0.028053866386413575
v 0.13106398391723634 0.18554523468017578 -0.028053866386413575
f 175 176 177
v 0.12912316131591797 0.18704483032226563 -0.0035219106674194336
v 0.12904235649108886 0.18712120056152345 -0.0036215696334838867
v 0.12911906051635744 0.18714839935302735 -0.00342276668548584
f 178 179 180
v 0.11169688034057618 0.1872458839416504 -0.0025541982650756838
v 0.11164233016967774 0.18710777282714844 -0.0026004133224487307
v 0.11156374740600586 0.1870950698852539 -0.002480422019958496
f 181 182 183
v 0.13848552513122558 0.18550552368164064 -0.023529940605163575
v 0.1384982852935791 0.18547420501708986 -0.023603888511657716
v 0.1384698657989502 0.18554523468017578 -0.023467436790466308
f 184 185 186
v 0.1341741828918457 0.18547025680541993 -0.024801989555358887
v 0.13414245414733886 0.18550554275512696 -0.024719820976257325
v 0.13716937828063966 0.18547025680541993 -0.023912917137145998
f 187 188 189
v 0.12872939872741698 0.18594972610473634 -0.0038339147567749026
v 0.12882255363464357 0.18585443496704102 -0.0038230428695678713
v 0.12873047637939453 0.18585443496704102 -0.0038431081771850588
f 190 191 192
v 0.12926809120178223 0.1855558967590332 -0.0036823568344116213
v 0.12925582695007323 0.18550437927246094 -0.0038394651412963867
v 0.12919446754455566 0.1855558967590332 -0.0037870893478393554
f 193 194 195
v 0.12899592208862304 0.1855558967590332 -0.003947211265563965
v 0.12903416442871093 0.18550437927246094 -0.004018240928649903
v 0.12890249061584472 0.18550437927246094 -0.0040740308761596684
f 196 197 198
v 0.1117434196472168 0.18544973373413087 -0.0032591352462768555
v 0.11166046905517578 0.18546945571899415 -0.003083373069763184
v 0.11194172668457031 0.18544973373413087 -0.003291808128356934
f 199 200 201
v 0.11125821876525879 0.1855045509338379 -0.0024937734603881836
v 0.11141858863830567 0.18555604934692382 -0.0026620206832885743
v 0.11135042953491212 0.1855045509338379 -0.0027049169540405275
f 202 203 204
v 0.11177795219421387 0.1856997299194336 -0.0028135404586791994
v 0.11165475654602051 0.18576284408569335 -0.002700549125671387
v 0.11179002571105957 0.18576284408569335 -0.0027854452133178713
f 205 206 207
v 0.1400975399017334 0.18550552368164064 -0.02317557430267334
v 0.13850393104553224 0.18547420501708986 -0.023602686882019042
v 0.13847457695007326 0.18554523468017578 -0.023466444969177245
f 208 209 210
v 0.1610337429046631 0.18585531234741212 -0.014383612632751465
v 0.16349769401550293 0.18594972610473634 -0.01131442165374756
v 0.1635186367034912 0.18579523086547853 -0.011327067375183106
f 211 212 213
v 0.16591646003723146 0.18579523086547853 -0.0024331197738647462
v 0.1652032642364502 0.1856997299194336 0.002978714942932129
v 0.16598747062683106 0.1856558418273926 -0.0024331197738647462
f 214 215 216
v 0.159284818649292 0.18562252044677735 0.012301033973693847
v 0.1538602809906006 0.18554523468017578 0.015784234046936036
v 0.15932975578308106 0.1855569839477539 0.01235289478302002
f 217 218 219
v 0.13932990837097167 0.18547420501708986 0.01845806980133057
v 0.13713527488708496 0.18550558090209962 0.018351773262023925
v 0.13713268089294434 0.1854702949523926 0.018439778327941896
f 220 221 222
v 0.13081957626342774 0.18550558090209962 0.017831143379211427
v 0.13080696868896485 0.1854702949523926 0.01791829013824463
v 0.13713527488708496 0.18550558090209962 0.018351773262023925
f 223 224 225
v 0.1117763786315918 0.1856997299194336 0.0000919809341430664
v 0.11172225761413575 0.18562250137329103 0.00010208988189697266
v 0.1139896469116211 0.1856997299194336 0.006671627998352051
f 226 227 228
v 0.1289820556640625 0.18594972610473634 -0.0037268362045288087
v 0.12892114448547365 0.1869497299194336 -0.0037689695358276367
v 0.12903611946105958 0.1869497299194336 -0.003676234245300293
f 229 230 231
v 0.13010558891296387 0.18547025680541993 -0.0008055028915405273
v 0.1295040683746338 0.18547420501708986 -0.0034646902084350586
v 0.13002133178710937 0.18550554275512696 -0.0007797918319702149
f 232 233 234
v 0.11316053199768067 0.187382755279541 0.003980778694152832
v 0.11308794784545899 0.18732763290405274 0.004007271766662598
v 0.1152878646850586 0.187382755279541 0.008294514656066895
f 235 236 237
v 0.12821913528442383 0.1869497299194336 0.017092045783996583
v 0.13932990837097167 0.1869497299194336 0.01811257266998291
v 0.13585876274108888 0.18709110260009765 0.01801083469390869
f 238 239 240
v 0.12175288963317871 0.18709110260009765 0.01482155704498291
v 0.12585475730895995 0.18709110260009765 0.016467617988586425
v 0.1258648281097412 0.18717920303344726 0.01643381977081299
f 241 242 243
v 0.1419906597137451 0.18717916488647462 0.017995842933654787
v 0.1419882183074951 0.18725893020629883 0.017944497108459474
v 0.14111949729919435 0.18717916488647462 0.018029889106750487
f 244 245 246
v 0.1590011959075928 0.18709095001220705 0.012356175422668458
v 0.15376754570007325 0.18710424423217775 0.015573128700256348
v 0.15377738761901855 0.1869497299194336 0.015595520973205566
f 247 248 249
v 0.16510391044616698 0.1873276138305664 -0.007147589683532715
v 0.16332118797302247 0.18735424041748047 -0.011207991600036622
v 0.16502939033508301 0.187382755279541 -0.007127066612243652
f 250 251 252
v 0.1384311466217041 0.1869497299194336 -0.023264952659606934
v 0.13951019096374512 0.1870911407470703 -0.023008299827575684
v 0.14408017921447755 0.1870911407470703 -0.02193043804168701
f 253 254 255
v 0.15002815055847168 0.1871792221069336 -0.020206690788269043
v 0.14405895042419434 0.1872589683532715 -0.021846381187438965
v 0.15001237678527832 0.1872589683532715 -0.020157767295837403
f 256 257 258
v 0.13143068122863769 0.18628307342529296 0.0026826372146606446
v 0.13143068122863769 0.18594972610473634 0.0026826372146606446
v 0.13143060493469239 0.18628307342529296 0.002682541847229004
f 259 260 261
v 0.13374825286865236 0.18562252044677735 0.004648350715637207
v 0.13371831703186035 0.1856997299194336 0.004694584846496582
v 0.13564860153198244 0.18562252044677735 0.005575932502746582
f 262 263 264
v 0.14076415824890137 0.18546943664550783 0.005922192573547363
v 0.13961639213562013 0.18544973373413087 0.005825413703918457
v 0.14041440773010255 0.18546943664550783 0.005944432258605957
f 265 266 267
v 0.14077104377746583 0.18550453186035157 0.006010922431945801
v 0.14249717521667482 0.18550453186035157 0.005749081611633301
v 0.14247672843933107 0.18546943664550783 0.005662487983703613
f 268 269 270
v 0.14772582817077637 0.18576427459716796 0.0012771883010864258
v 0.14769536781311035 0.1856997299194336 0.0012703218460083008
v 0.14735332298278808 0.18576427459716796 0.002355088233947754
f 271 272 273
v 0.146024263381958 0.18576427459716796 0.004151238441467285
v 0.14571904945373534 0.18579523086547853 0.004444703102111817
v 0.14604268836975098 0.18585531234741212 0.004170483589172364
f 274 275 276
v 0.1472861270904541 0.18550556182861327 -0.001589766502380371
v 0.14761098670959472 0.1855569648742676 -0.0007519636154174805
v 0.14736028480529786 0.1855569648742676 -0.0016190061569213868
f 277 278 279
v 0.13772531318664552 0.18547025680541993 -0.006822577476501465
v 0.14123695182800294 0.18550552368164064 -0.005946093559265137
v 0.13774591255187987 0.18550552368164064 -0.006908217430114746
f 280 281 282
v 0.1290680866241455 0.18724363327026367 -0.0033984479904174804
v 0.12960060882568358 0.18732763290405274 -0.0006400403976440429
v 0.12966330337524415 0.1872589683532715 -0.0006592283248901367
f 283 284 285
v 0.13013643074035644 0.18709110260009765 0.0004227724075317383
v 0.13010371971130372 0.18717920303344726 0.0004359521865844727
v 0.13110953140258788 0.18709110260009765 0.0022767343521118166
f 286 287 288
v 0.13299085426330567 0.1872589683532715 -0.024822131156921386
v 0.13397145080566406 0.1872589683532715 -0.02438113307952881
v 0.13399010467529296 0.1871792221069336 -0.02442902660369873
f 289 290 291
v 0.13634176063537598 0.18678306579589843 -0.007508250236511231
v 0.13634176063537598 0.1869497299194336 -0.007508250236511231
v 0.1363415699005127 0.18678306579589843 -0.007508288383483887
f 292 293 294
v 0.11991561698913575 0.1856224822998047 -0.013855563163757325
v 0.1198745517730713 0.18555692672729493 -0.013800536155700684
v 0.12460027503967286 0.1856224822998047 -0.011136103630065917
f 295 296 297
v 0.13449863243103027 0.18550554275512696 -0.007664023399353028
v 0.12749132919311523 0.18550554275512696 -0.009780169486999512
v 0.12746066856384278 0.18547025680541993 -0.009697600364685059
f 298 299 300
v 0.14192598152160646 0.18744064331054688 -0.0064309797286987306
v 0.14394656944274903 0.1874497413635254 -0.005750590324401856
v 0.1415023021697998 0.1874497413635254 -0.006670123100280762
f 301 302 303
v 0.14795526313781737 0.18732757568359376 -0.0008758840560913086
v 0.1480310230255127 0.187382755279541 -0.0008909902572631837
v 0.1476561908721924 0.18732757568359376 -0.0018561849594116212
f 304 305 306
v 0.14700967597961426 0.1874497413635254 0.003875645637512207
v 0.14767177391052247 0.18744062423706054 0.0027077569961547854
v 0.14693660545349121 0.18744062423706054 0.003815659523010254
f 307 308 309
v 0.14736097145080568 0.1871790885925293 0.00254738712310791
v 0.14732969093322754 0.1870909309387207 0.0025311365127563476
v 0.1466662769317627 0.1871790885925293 0.0035937204360961916
f 310 311 312
v 0.14110324668884278 0.18717918395996094 0.006310013771057129
v 0.13961639213562013 0.18724363327026367 0.006420907020568848
v 0.13961639213562013 0.18735424041748047 0.006531514167785644
f 313 314 315
v 0.13485715675354004 0.1874497413635254 0.0059358301162719725
v 0.13337537574768066 0.18744062423706054 0.005034684181213379
v 0.13276040840148925 0.1874497413635254 0.004708985328674317
f 316 317 318
v 0.13356838989257813 0.18717912673950196 0.004743069648742676
v 0.13518548774719238 0.1872589111328125 0.00564644718170166
v 0.13520474243164063 0.18717912673950196 0.005598858833312988
f 319 320 321
v 0.13197951126098634 0.18725893020629883 -0.02553437328338623
v 0.13201421546936035 0.18717916488647462 -0.025572291374206545
v 0.13147308158874513 0.18725893020629883 -0.026074744224548342
f 322 323 324
v 0.13088357734680175 0.18717916488647462 -0.027361327171325684
v 0.13083364295959474 0.18725893020629883 -0.027349196434020995
v 0.13112663078308107 0.18717916488647462 -0.026706133842468262
f 325 326 327
v 0.13170273590087891 0.18725881576538086 -0.030740614891052245
v 0.13236262130737306 0.18735424041748047 -0.03154748058319092
v 0.13165174293518067 0.18732757568359376 -0.030781832695007325
f 328 329 330
v 0.13236262130737306 0.18735424041748047 -0.03154748058319092
v 0.133109224319458 0.187382755279541 -0.03211106395721436
v 0.13307794380187987 0.1874139404296875 -0.032167368888854984
f 331 332 333
v 0.133109224319458 0.187382755279541 -0.03211106395721436
v 0.13394969749450683 0.1874139404296875 -0.032561331748962405
v 0.13307794380187987 0.1874139404296875 -0.032167368888854984
f 334 335 336
v 0.1419684009552002 0.18717903137207031 -0.031948424339294436
v 0.1436562328338623 0.18735424041748047 -0.03107771968841553
v 0.14198968696594239 0.18725887298583985 -0.03199515438079834
f 337 338 339
v 0.14671127128601075 0.18742527008056642 -0.025520182609558104
v 0.14641286659240724 0.1874139404296875 -0.02664868450164795
v 0.1463508014678955 0.187382755279541 -0.026631403923034667
f 340 341 342
v 0.14460862922668458 0.187382755279541 -0.03018059825897217
v 0.14540851402282715 0.1874139404296875 -0.029124308586120605
v 0.14465844917297363 0.1874139404296875 -0.030221434593200685
f 343 344 345
v 0.11894717979431152 0.18594972610473634 -0.014793902397155763
v 0.11856298255920411 0.18585529327392578 -0.015124598503112794
v 0.11893114852905273 0.18579523086547853 -0.014775420188903808
f 346 347 348
v 0.11409803199768066 0.18576423645019532 -0.022571764945983886
v 0.11412391471862793 0.18585529327392578 -0.022577963829040527
v 0.1136136417388916 0.1856558418273926 -0.026375819206237792
f 349 350 351
v 0.12445265579223633 0.18594972610473634 -0.04158045864105225
v 0.12444285202026367 0.18579523086547853 -0.04160288906097412
v 0.11992359924316406 0.18594972610473634 -0.03892769908905029
f 352 353 354
v 0.12445265579223633 0.18594972610473634 -0.04158045864105225
v 0.12866781997680665 0.18585527420043946 -0.042941256523132326
v 0.12866192626953124 0.18576421737670898 -0.04296725368499756
f 355 356 357
v 0.14836797523498535 0.18594972610473634 -0.043085890769958494
v 0.15275363731384278 0.18594972610473634 -0.041789523124694826
v 0.15310077476501466 0.18585454940795898 -0.04165852642059326
f 358 359 360
v 0.14160753059387207 0.1855560302734375 -0.044078627586364744
v 0.13920711326599122 0.1856558418273926 -0.04402930355072022
v 0.1416046314239502 0.18562192916870118 -0.04400933361053467
f 361 362 363
v 0.16313922691345215 0.18562250137329103 -0.030522700309753417
v 0.1607588748931885 0.18562250137329103 -0.03569624996185303
v 0.1607131175994873 0.1856997299194336 -0.035665617942810056
f 364 365 366
v 0.11917595672607423 0.18742527008056642 -0.015052805900573731
v 0.12479950714111328 0.18741395950317383 -0.011524859428405762
v 0.12483763504028321 0.18744064331054688 -0.011607600212097169
f 367 368 369
v 0.16374841499328613 0.18594972610473634 -0.026199217796325683
v 0.16369106101989747 0.1869497299194336 -0.02613993740081787
v 0.1636752109527588 0.18594972610473634 -0.026126700401306154
f 370 371 372
v 0.16139146614074706 0.18709104537963867 -0.03438069438934326
v 0.15957916069030761 0.1869497299194336 -0.03705967998504639
v 0.15936595726013184 0.18709104537963867 -0.03727439022064209
f 373 374 375
v 0.15654491233825685 0.18742527008056642 -0.0393749532699585
v 0.1509467296600342 0.187382755279541 -0.04216210460662842
v 0.15092759895324706 0.1874139404296875 -0.04210059261322022
f 376 377 378
v 0.13180850791931153 0.1874497413635254 -0.042984419822692875
v 0.12765652465820312 0.18744064331054688 -0.042264681816101074
v 0.12465297508239746 0.1874497413635254 -0.041122332572937015
f 379 380 381
v 0.13726066398620607 0.18725893020629883 -0.04380120372772217
v 0.13920711326599122 0.18724363327026367 -0.04383830165863037
v 0.13725925254821777 0.18717914581298828 -0.04385258769989014
f 382 383 384
v 0.11656258392333985 0.18735424041748047 -0.03500134563446045
v 0.11646991539001465 0.18724363327026367 -0.03506175136566162
v 0.11451596069335938 0.1873276138305664 -0.030728121757507325
f 385 386 387
v 0.11683529663085938 0.1873276138305664 -0.017281142234802246
v 0.11908222007751465 0.18735424041748047 -0.014949599266052247
v 0.11689664649963379 0.187382755279541 -0.017328063011169435
f 388 389 390
v 0.1318053321838379 0.1869497299194336 -0.03069722270965576
v 0.13129548835754395 0.18594972610473634 -0.02992495632171631
v 0.13182850646972658 0.18594972610473634 -0.03072737789154053
f 391 392 393
v 0.15377738761901855 0.1869497299194336 0.015595520973205566
v 0.15377738761901855 0.18594972610473634 0.015595520973205566
v 0.1587805919647217 0.1869497299194336 0.012566060066223145
f 394 395 396
v 0.13306625175476075 0.1869497299194336 0.004313687324523926
v 0.133081844329834 0.18594972610473634 0.004326790809631348
v 0.1314313201904297 0.18594972610473634 0.002683457374572754
f 397 398 399
v 0.13373320388793947 0.18594972610473634 -0.024592772483825683
v 0.1351222496032715 0.1869497299194336 -0.024095507621765138
v 0.1352861385345459 0.18594972610473634 -0.024045001029968264
f 400 401 402
v 0.2928509883880615 0.18544973373413087 0.026649397850036623
v 0.290850980758667 0.18544973373413087 0.007589386940002441
v 0.15911010551452637 0.18544973373413087 0.01294249439239502
f 403 404 405
v -0.10060150337219238 0.18544973373413087 -0.04336510753631592
v -0.24697502326965332 0.18544973373413087 -0.04710084056854248
v -0.1008725757598877 0.18544973373413087 -0.04323273754119873
f 406 407 408
v 0.06945512580871582 0.18544973373413087 0.008856705665588379
v 0.08138295936584473 0.18544973373413087 0.016589402198791504
v 0.06959440994262696 0.18544973373413087 0.008657406806945801
f 409 410 411
v 0.011721027374267579 0.18544973373413087 -0.030241480827331545
v -0.0009637088775634766 0.18544973373413087 -0.030291224479675295
v -0.0011057491302490234 0.18544973373413087 -0.03001246547698975
f 412 413 414
v 0.032605083465576175 0.18544973373413087 -0.027993403434753417
v 0.046480310440063476 0.18544973373413087 -0.028541213035583497
v 0.03488592433929443 0.18544973373413087 -0.02929446315765381
f 415 416 417
v 0.14620750236511232 0.18544973373413087 0.0032770051956176756
v 0.13338697242736816 0.18544973373413087 0.003930729866027832
v 0.14540761756896972 0.18544973373413087 0.004085358619689942
f 418 419 420
v 0.12425233650207519 0.18544973373413087 -0.04203858470916748
v 0.10096412467956543 0.18544973373413087 -0.04241061305999756
v 0.11961582946777344 0.18544973373413087 -0.03932175731658936
f 421 422 423
v 0.1385298137664795 0.18544973373413087 -0.023755141258239746
v 0.14656730461120607 0.18544973373413087 -0.02459485149383545
v 0.14640170860290527 0.18544973373413087 -0.024662829399108886
f 424 425 426
v 0.13634097862243652 0.1869497299194336 -0.0075084218978881834
v 0.1272630386352539 0.1869497299194336 -0.010154868125915527
v 0.13634097862243652 0.18594972610473634 -0.0075084218978881834
f 427 428 429
v 0.15980037498474123 0.1874497413635254 -0.014805327415466309
v 0.14778028297424317 0.1874497413635254 -0.00236655330657959
v 0.1630695323944092 0.1874497413635254 -0.011056204795837403
f 430 431 432
v 0.12316081809997559 0.1874497413635254 -0.012546320915222169
v 0.1318789176940918 0.1874497413635254 -0.0250993070602417
v 0.13126966285705566 0.1874497413635254 -0.025703440666198733
f 433 434 435
v 0.10043300437927247 0.18707555770874024 0.01670906925201416
v 0.10035492706298828 0.18722124099731446 0.0167428674697876
v 0.10030687141418457 0.18716783523559571 0.01688086414337158
f 436 437 438
v 0.10025801467895508 0.1869497299194336 -0.042815123558044434
v 0.10022561836242676 0.18709331512451172 -0.042811861991882326
v 0.10038843917846679 0.18701562881469727 -0.04266676998138428
f 439 440 441
v 0.10048859405517578 0.18579523086547853 0.016589402198791504
v 0.1004641227722168 0.18594972610473634 0.016589402198791504
v 0.10046293067932129 0.18579523086547853 0.016751469612121584
f 442 443 444
v 0.10063566970825195 0.18554523468017578 0.016807602882385253
v 0.10055961418151856 0.1856558418273926 0.016589402198791504
v 0.10053046989440918 0.1856558418273926 0.016773404121398928
f 445 446 447
v 0.08204022216796875 0.18716783523559571 -0.04270209407806397
v 0.08216485786437988 0.18729248046875 -0.04270209407806397
v 0.08223937797546386 0.1872112274169922 -0.042811861991882326
f 448 449 450
v 0.08203294563293458 0.1856558418273926 0.017071160316467285
v 0.08207468795776367 0.18579523086547853 0.017013691902160646
v 0.08190120506286622 0.1856558418273926 0.016939419746398926
f 451 452 453
v 0.10055961418151856 0.1856558418273926 -0.04241061305999756
v 0.10053046989440918 0.1856558418273926 -0.04259463405609131
v 0.10046293067932129 0.18579523086547853 -0.042572680473327636
f 454 455 456
v 0.10014814186096192 0.1856558418273926 -0.04297696208953858
v 0.1001261978149414 0.18579523086547853 -0.042909403800964356
v 0.10031414794921875 0.1856558418273926 -0.04289237117767334
f 457 458 459
v 0.08196792411804199 0.18554523468017578 -0.042981863975524906
v 0.08188599395751953 0.18547420501708986 -0.04309462642669678
v 0.08181171226501464 0.18554523468017578 -0.04282565212249756
f 460 461 462
v 0.08190743255615235 0.18594972610473634 -0.0425651273727417
v 0.08188296127319336 0.1869497299194336 -0.04241061305999756
v 0.08190743255615235 0.1869497299194336 -0.0425651273727417
f 463 464 465
v 0.09996412086486817 0.18710424423217775 -0.04288613414764404
v 0.08238296318054199 0.1869497299194336 -0.04291060543060303
v 0.08238296318054199 0.18710424423217775 -0.04288613414764404
f 466 467 468
v 0.1004641227722168 0.1869497299194336 -0.04241061305999756
v 0.1004641227722168 0.1869497299194336 0.016589402198791504
v 0.1004641227722168 0.18594972610473634 -0.04241061305999756
f 469 470 471
v 0.06816473770141601 0.18723121643066407 -0.027275572776794436
v 0.06822236824035645 0.1870940589904785 -0.027230731010437013
v 0.06818904685974121 0.1871877670288086 -0.027425433158874513
f 472 473 474
v 0.05057490158081055 0.18718036651611328 -0.023968688011169435
v 0.05073712635040283 0.18722040176391602 -0.0239164457321167
v 0.05058277893066406 0.18730445861816405 -0.024083758354187013
f 475 476 477
v 0.06804878044128418 0.18550457000732423 -0.02662814235687256
v 0.06808235931396485 0.18546945571899415 -0.026545802116394044
v 0.06819181251525878 0.18550457000732423 -0.02670502758026123
f 478 479 480
v 0.06855920600891113 0.18546945571899415 -0.027029696464538573
v 0.06869948196411133 0.18544973373413087 -0.027008982658386232
v 0.06874859619140625 0.18544973373413087 -0.027213412284851076
f 481 482 483
v 0.06825339126586914 0.18585456848144533 -0.02745740032196045
v 0.06826501655578614 0.18585456848144533 -0.027306071281433107
v 0.06829197692871095 0.1857628631591797 -0.027304068565368652
f 484 485 486
v 0.023939064025878906 0.18554523468017578 -0.04121445751190186
v 0.02397397804260254 0.1856224822998047 -0.04113803005218506
v 0.023986642837524413 0.1856558418273926 -0.04111460781097412
f 487 488 489
v 0.05289251136779785 0.1870909309387207 0.0010131921768188478
v 0.05292171287536621 0.1871790885925293 0.0010328760147094726
v 0.052937815666198734 0.1870909309387207 0.0009321298599243164
f 490 491 492
v 0.05334154415130615 0.18744062423706054 0.0009374322891235352
v 0.05325307655334473 0.18741392135620116 0.0009155168533325196
v 0.05328915405273438 0.18744062423706054 0.0010894861221313478
f 493 494 495
v 0.05051917839050293 0.18594972610473634 -0.02394095516204834
v 0.05051336097717285 0.1858544158935547 -0.023933726310729982
v 0.05059078025817871 0.18594972610473634 -0.023890868186950683
f 496 497 498
v 0.050286496162414554 0.1854692840576172 -0.0236637601852417
v 0.05034378814697266 0.18550434112548828 -0.023732005119323732
v 0.0501800708770752 0.1854692840576172 -0.023770380973815917
f 499 500 501
v 0.05066671180725098 0.1858544158935547 -0.023845282554626465
v 0.05058605480194092 0.1858544158935547 -0.0238827428817749
v 0.050572526931762694 0.18576255798339844 -0.02385926342010498
f 502 503 504
v 0.05059078025817871 0.18594972610473634 -0.023890868186950683
v 0.05065363693237305 0.1869497299194336 -0.02386019802093506
v 0.05053277778625488 0.1869497299194336 -0.023929930686950682
f 505 506 507
v 0.06917980003356934 0.18707555770874024 -0.01674584484100342
v 0.06913523483276367 0.18701562881469727 -0.016882315635681152
v 0.06910172271728515 0.18722124099731446 -0.016779643058776855
f 508 509 510
v 0.06918502616882324 0.18576210021972656 0.008440274238586426
v 0.06921184349060058 0.1856997299194336 0.008454560279846191
v 0.06923164176940919 0.18576210021972656 0.00831856632232666
f 511 512 513
v 0.053271654129028324 0.1874497413635254 -0.004730998039245605
v 0.05314665603637696 0.18742527008056642 -0.004640189170837403
v 0.053413694381713867 0.1874497413635254 -0.0044522199630737305
f 514 515 516
v 0.05278896141052246 0.18580228805541993 0.0010686769485473632
v 0.05270371723175049 0.18579523086547853 0.0011296167373657227
v 0.05271612453460693 0.18594972610473634 0.0011507120132446288
f 517 518 519
v 0.04989306735992432 0.1855569648742676 -0.024830618858337403
v 0.05017674732208252 0.18554523468017578 -0.024083453178405764
v 0.04995582866668701 0.18562250137329103 -0.02485840892791748
f 520 521 522
v 0.043478835105895994 0.18562250137329103 -0.030250407218933108
v 0.04002948093414307 0.18554523468017578 -0.030548983573913575
v 0.043462560653686526 0.1855569648742676 -0.03018372631072998
f 523 524 525
v 0.04002948093414307 0.1856558418273926 -0.03065959072113037
v 0.03913525390625 0.1856997299194336 -0.030664549827575684
v 0.03913818645477295 0.18562252044677735 -0.0306095609664917
f 526 527 528
v 0.03665808010101319 0.18585531234741212 -0.030379115104675294
v 0.03732161808013916 0.18594972610473634 -0.03052502727508545
v 0.03469218063354492 0.18594972610473634 -0.029755221366882325
f 529 530 531
v 0.02719579029083252 0.18576419830322266 -0.01909558391571045
v 0.027226531982421875 0.1856997299194336 -0.019090147972106935
v 0.028268416404724123 0.18576419830322266 -0.022981921195983888
f 532 533 534
v 0.028956273078918456 0.1856997299194336 -0.0013726530075073243
v 0.029005048751831054 0.18562252044677735 -0.00139823055267334
v 0.027978122711181642 0.1856997299194336 -0.00372305965423584
f 535 536 537
v 0.040561516761779784 0.18547420501708986 0.00462929630279541
v 0.03780762481689453 0.18547027587890624 0.004407814979553223
v 0.037793710708618165 0.18550556182861327 0.004494771003723145
f 538 539 540
v 0.032681596755981444 0.18547027587890624 0.002412957191467285
v 0.03276242542266846 0.18544973373413087 0.002296818733215332
v 0.03072589683532715 0.18544973373413087 0.00047039890289306643
f 541 542 543
v 0.04634415435791016 0.18544973373413087 0.0035980119705200197
v 0.04639108943939209 0.18547420501708986 0.003745221138000488
v 0.0505270938873291 0.18547025680541993 0.0019571962356567385
f 544 545 546
v 0.04058598804473877 0.18710424423217775 -0.016626158714294435
v 0.040592639923095704 0.18707555770874024 -0.01674584484100342
v 0.040561516761779784 0.1869497299194336 -0.016626158714294435
f 547 548 549
v 0.06951503562927246 0.18547420501708986 -0.01688742733001709
v 0.06966197776794433 0.18544973373413087 -0.016935168266296388
v 0.06939493942260742 0.18547420501708986 -0.01712313747406006
f 550 551 552
v 0.040767620086669926 0.18735424041748047 -0.005143214225769043
v 0.040657008171081546 0.18724363327026367 -0.005143214225769043
v 0.04080001640319824 0.18735097885131835 -0.004999629020690918
f 553 554 555
v 0.052462637901306154 0.18547420501708986 -0.004297724723815918
v 0.0525884656906128 0.18548086166381836 -0.004262896537780762
v 0.052528536796569825 0.18552541732788086 -0.004399367332458496
f 556 557 558
v 0.052462637901306154 0.18594972610473634 -0.004643221855163574
v 0.05261714744567871 0.1869497299194336 -0.004618731498718262
v 0.052462637901306154 0.1869497299194336 -0.004643221855163574
f 559 560 561
v 0.040377495765686035 0.18547420501708986 -0.01712313747406006
v 0.04025249767303467 0.18544973373413087 -0.017213946342468263
v 0.04025740432739258 0.18547420501708986 -0.01688742733001709
f 562 563 564
v 0.04075323867797852 0.18579523086547853 -0.0047189054489135745
v 0.04090700435638428 0.18594972610473634 -0.004667693138122559
v 0.040767620086669926 0.18594972610473634 -0.0047387037277221685
f 565 566 567
v 0.052462637901306154 0.18544973373413087 -0.004143210411071778
v 0.04106151390075684 0.18547420501708986 -0.004297724723815918
v 0.04106151390075684 0.18544973373413087 -0.004143210411071778
f 568 569 570
v 0.04106151390075684 0.1874497413635254 -0.005143214225769043
v 0.052462637901306154 0.18742527008056642 -0.004988699913024902
v 0.052462637901306154 0.1874497413635254 -0.005143214225769043
f 571 572 573
v 0.06871091651916504 0.1874497413635254 -0.016626158714294435
v 0.04106151390075684 0.18742527008056642 -0.016780673027038576
v 0.04106151390075684 0.1874497413635254 -0.016626158714294435
f 574 575 576
v 0.06697732734680176 0.1856224822998047 0.010078381538391114
v 0.0690450553894043 0.1856558418273926 0.008681859016418457
v 0.06900520133972168 0.18579523086547853 0.008623074531555176
f 577 578 579
v 0.054668596267700195 0.18579523086547853 0.016109971046447753
v 0.04930480766296387 0.1856997299194336 0.017438096046447756
v 0.054690268516540526 0.1856558418273926 0.016177605628967286
f 580 581 582
v 0.02677734184265137 0.18562252044677735 0.016499051094055178
v 0.022148311614990236 0.18554523468017578 0.014651307106018066
v 0.026756675720214843 0.1855569839477539 0.016564492225646973
f 583 584 585
v 0.022246392250061035 0.18594972610473634 0.014470013618469238
v 0.016598804473876953 0.18585531234741212 0.010284165382385253
v 0.016579931259155273 0.18576425552368164 0.010302990913391114
f 586 587 588
v 0.009273417472839355 0.18585529327392578 -0.0030675230026245117
v 0.008081388950347901 0.18579523086547853 -0.012910605430603028
v 0.00924758243560791 0.18576423645019532 -0.0030609617233276366
f 589 590 591
v 0.008277705192565918 0.18562252044677735 -0.01802157497406006
v 0.008010368824005127 0.1856558418273926 -0.012910605430603028
v 0.008081388950347901 0.18579523086547853 -0.012910605430603028
f 592 593 594
v 0.01621636199951172 0.18585527420043946 -0.0354856595993042
v 0.01721419620513916 0.18594972610473634 -0.03644639110565186
v 0.021576803207397462 0.18585527420043946 -0.0397155294418335
f 595 596 597
v 0.046525047302246096 0.18724363327026367 0.004165371894836426
v 0.04382025051116943 0.18732763290405274 0.004890049934387207
v 0.04383261966705322 0.187382755279541 0.004966305732727051
f 598 599 600
v 0.03215220260620117 0.18732759475708008 0.002686490058898926
v 0.03210654067993164 0.187382755279541 0.0027488412857055665
v 0.034425623893737795 0.18732759475708008 0.0039875307083129885
f 601 602 603
v 0.039549777984619144 0.187382755279541 0.00519936466217041
v 0.03955374050140381 0.18732759475708008 0.005122174263000489
v 0.03691643524169922 0.187382755279541 0.00485991382598877
f 604 605 606
v 0.027994797706604003 0.18744064331054688 -0.002313300132751465
v 0.02687589454650879 0.18744064331054688 -0.006130114555358887
v 0.026879690170288087 0.1874497413635254 -0.005641013145446777
f 607 608 609
v 0.026480935096740724 0.18735424041748047 -0.01311524486541748
v 0.026477320671081543 0.187382755279541 -0.015046435356140137
v 0.0264130859375 0.18741388320922853 -0.015049334526062013
f 610 611 612
v 0.026620171546936036 0.18725883483886718 -0.015040007591247559
v 0.026662567138671874 0.18710424423217775 -0.01311524486541748
v 0.02667154598236084 0.18717899322509765 -0.015037718772888184
f 613 614 615
v 0.03726434516906738 0.18725887298583985 -0.03062199687957764
v 0.04002948093414307 0.18735424041748047 -0.030961180686950685
v 0.037252572059631346 0.18732759475708008 -0.030686503410339357
f 616 617 618
v 0.04002948093414307 0.18724363327026367 -0.03085057353973389
v 0.04438585090637207 0.18725889205932617 -0.030229884147644045
v 0.044406326293945315 0.18732759475708008 -0.0302921781539917
f 619 620 621
v 0.050161569595336915 0.18717916488647462 -0.02483216381072998
v 0.05020876216888428 0.18725893020629883 -0.024852477073669433
v 0.048775299072265625 0.18717916488647462 -0.027165804862976074
f 622 623 624
v 0.024027073860168457 0.18628307342529296 -0.04102809047698975
v 0.02402771759033203 0.18594972610473634 -0.041028395652771
v 0.02402578639984131 0.18594972610473634 -0.04102746105194092
f 625 626 627
v 0.04043875980377197 0.18547420501708986 -0.04427929973602295
v 0.04043875980377197 0.18554523468017578 -0.04413991069793701
v 0.04254300403594971 0.18550556182861327 -0.04418440914154053
f 628 629 630
v 0.04254136848449707 0.1855569648742676 -0.04410472011566162
v 0.04043875980377197 0.18554523468017578 -0.04413991069793701
v 0.04253996181488037 0.18562250137329103 -0.0440360746383667
f 631 632 633
v 0.06633768844604493 0.18594972610473634 -0.032280322074890136
v 0.06823605346679687 0.18594972610473634 -0.02748679256439209
v 0.06783331680297852 0.18585527420043946 -0.028766795158386232
f 634 635 636
v 0.02162600326538086 0.18709104537963867 -0.03971043682098389
v 0.016278532028198244 0.18717916488647462 -0.035456286430358884
v 0.021644070625305177 0.18717916488647462 -0.03968020534515381
f 637 638 639
v 0.012337701797485352 0.18735424041748047 -0.029897528648376467
v 0.00959630537033081 0.1873276138305664 -0.02325705623626709
v 0.009670773029327394 0.187382755279541 -0.02323639965057373
f 640 641 642
v 0.012254474639892578 0.1874497413635254 0.0033955278396606446
v 0.009451058387756348 0.1874497413635254 -0.004533930778503418
v 0.009591567993164062 0.18744064331054688 -0.003502093315124512
f 643 644 645
v 0.01639289665222168 0.18709095001220705 0.010033787727355957
v 0.022258036613464358 0.18710424423217775 0.014448498725891113
v 0.01641817378997803 0.18717910766601564 0.010009202003479004
f 646 647 648
v 0.027934153556823733 0.18717912673950196 0.016654881477355957
v 0.02792487907409668 0.18709098815917968 0.016688870429992675
v 0.03375862884521484 0.18717912673950196 0.017747620582580566
f 649 650 651
v 0.054653666496276856 0.18710424423217775 0.016063355445861818
v 0.05466113376617432 0.1869497299194336 0.016086663246154785
v 0.06209711837768555 0.1869497299194336 0.012826584815979003
f 652 653 654
v 0.06790509033203125 0.18742527008056642 -0.027387648582458495
v 0.06803861427307129 0.18735424041748047 -0.027427645683288576
v 0.06762096214294434 0.187382755279541 -0.02858767604827881
f 655 656 657
v 0.055315964698791506 0.1869497299194336 -0.04213297939300537
v 0.05530756759643555 0.18710424423217775 -0.04210999584197998
v 0.059769657135009764 0.1869497299194336 -0.03987574672698975
f 658 659 660
v 0.04489769744873047 0.187382755279541 -0.0435813627243042
v 0.04953263092041016 0.187382755279541 -0.04318148708343506
v 0.04954263973236084 0.18732763290405274 -0.04325808620452881
f 661 662 663
v 0.03060260105133057 0.18732763290405274 -0.04292494869232178
v 0.024176319122314452 0.18742527008056642 -0.040716486930847166
v 0.030617335319519042 0.187382755279541 -0.04284911251068115
f 664 665 666
v 0.02846025276184082 0.1869497299194336 -0.0022549543380737305
v 0.028407252311706543 0.18594972610473634 -0.0023781881332397463
v 0.027368548393249512 0.1869497299194336 -0.005746241569519043
f 667 668 669
v 0.0307510929107666 0.1869497299194336 0.017357377052307128
v 0.03966113376617432 0.18594972610473634 0.01811257266998291
v 0.03966113376617432 0.1869497299194336 0.01811257266998291
f 670 671 672
v 0.052462637901306154 0.1874497413635254 -0.005143214225769043
v 0.04106151390075684 0.1874497413635254 -0.016626158714294435
v 0.04106151390075684 0.1874497413635254 -0.005143214225769043
f 673 674 675
v 0.0631223087310791 0.1874497413635254 -0.03622044658660889
v 0.049346654891967774 0.1874497413635254 -0.027152358055114748
v 0.05084065246582031 0.1874497413635254 -0.024323912620544435
f 676 677 678
v -0.0038942713737487793 0.1873405456542969 -0.00867322063446045
v -0.003947674751281738 0.18729248046875 -0.008535223960876465
v -0.0037749786376953124 0.18722124099731446 -0.00867322063446045
f 679 680 681
v -0.03244411182403564 0.18710424423217775 -0.00813498592376709
v -0.03249533367156982 0.1869497299194336 -0.007981215476989746
v -0.032424318313598634 0.1869497299194336 -0.008120604515075684
f 682 683 684
v -0.004022192478179931 0.1872112274169922 -0.020465346336364747
v -0.004165780067443847 0.18724363327026367 -0.020468588829040527
v -0.004165780067443847 0.18735424041748047 -0.02035798168182373
f 685 686 687
v -0.003668813228607178 0.18547420501708986 -0.008142691612243652
v -0.0037507410049438476 0.18554523468017578 -0.008255454063415527
v -0.0039045090675354005 0.18547420501708986 -0.00802258586883545
f 688 689 690
v -0.03301980686187744 0.1874497413635254 0.0030013933181762694
v -0.03282391738891602 0.18742527008056642 0.0032626619338989257
v -0.032865297317504885 0.18742527008056642 0.0030013933181762694
f 691 692 693
v -0.03217431735992432 0.18547420501708986 -0.007826701164245605
v -0.032019807815551755 0.18544973373413087 -0.007826701164245605
v -0.03217474174499512 0.1854775619506836 -0.007881861686706543
f 694 695 696
v -0.004165780067443847 0.1856558418273926 -0.00823121166229248
v -0.032019807815551755 0.1856558418273926 -0.00823121166229248
v -0.004165780067443847 0.18554523468017578 -0.008120604515075684
f 697 698 699
v -0.03223800849914551 0.18735424041748047 -0.020392542839050294
v -0.032019807815551755 0.18724363327026367 -0.020468588829040527
v -0.032203824043273925 0.18724363327026367 -0.02049775218963623
f 700 701 702
v -0.00336167049407959 0.18547420501708986 -0.020325366020202636
v -0.0034942336082458498 0.18554523468017578 -0.02028229808807373
v -0.003320288181304932 0.18547420501708986 -0.02006409740447998
f 703 704 705
v -0.0010143442153930664 0.18735424041748047 0.003707512855529785
v -0.0007962388992309571 0.18729248046875 0.003709916114807129
v -0.0008707566261291505 0.1872112274169922 0.0036001482009887695
f 706 707 708
v -0.03251980972290039 0.18594972610473634 0.0030013933181762694
v -0.03248868179321289 0.18583005905151367 0.00312722110748291
v -0.03249533367156982 0.18579523086547853 0.0030013933181762694
f 709 710 711
v -0.03217431735992432 0.18594972610473634 0.003476933479309082
v -0.03217431735992432 0.1869497299194336 0.003476933479309082
v -0.032019807815551755 0.18594972610473634 0.0035014047622680664
f 712 713 714
v -0.03250157070159912 0.18724363327026367 -0.02995026683807373
v -0.03251860809326172 0.18710424423217775 -0.029762316703796386
v -0.03244411182403564 0.18710424423217775 -0.029908514976501467
f 715 716 717
v -0.0321456356048584 0.18583005905151367 -0.02059521770477295
v -0.032019807815551755 0.18579523086547853 -0.020588561058044436
v -0.03208570671081543 0.18569356918334962 -0.02063977336883545
f 718 719 720
v -0.0009591789245605469 0.18710466384887695 0.01706156635284424
v -0.0007528467178344727 0.18709331512451172 0.01699065113067627
v -0.0008707566261291505 0.1872112274169922 0.01699065113067627
f 721 722 723
v -0.0005900378227233887 0.18579523086547853 0.003693131446838379
v -0.0006098361015319825 0.18594972610473634 0.003707512855529785
v -0.0005155415534973145 0.18579523086547853 0.003839329719543457
f 724 725 726
v -0.0008598370552062989 0.18594972610473634 0.0035258760452270507
v -0.0008598370552062989 0.1869497299194336 0.0035258760452270507
v -0.0007204527854919434 0.18594972610473634 0.00359688663482666
f 727 728 729
v -0.032313701629638675 0.18554523468017578 -0.02960024929046631
v -0.03228130531311035 0.18554847717285156 -0.029743834495544436
v -0.03244412136077881 0.18569356918334962 -0.02966614818572998
f 730 731 732
v -0.050600969314575195 0.1869497299194336 0.01708939456939697
v -0.050600969314575195 0.18710424423217775 0.017064923286437987
v -0.050656134605407716 0.18710466384887695 0.01706156635284424
f 733 734 735
v -0.0010143442153930664 0.1856558418273926 0.017184895515441896
v -0.0008303279876708985 0.1856558418273926 0.01715573215484619
v -0.0008522744178771972 0.18579523086547853 0.0170881929397583
f 736 737 738
v -0.0004479975700378418 0.1856558418273926 0.016773404121398928
v -0.0005155415534973145 0.18579523086547853 0.016751469612121584
v -0.0005325813293457031 0.1856558418273926 0.016939419746398926
f 739 740 741
v -0.001696660041809082 0.18729248046875 -0.04270209407806397
v -0.001643256664276123 0.1873405456542969 -0.04256409740447998
v -0.0015720243453979492 0.18716783523559571 -0.04270209407806397
f 742 743 744
v -0.0014177985191345215 0.18547420501708986 -0.029916220664978028
v -0.0016057486534118654 0.18544973373413087 -0.029649191856384278
v -0.0013269801139831543 0.18544973373413087 -0.029791232109069823
f 745 746 747
v -0.05107649993896485 0.18710424423217775 -0.04241061305999756
v -0.05099177074432373 0.18722124099731446 -0.04256409740447998
v -0.05106984329223633 0.18707555770874024 -0.042530280113220215
f 748 749 750
v -0.05140507888793945 0.18547420501708986 0.01685067081451416
v -0.05160096836090088 0.18544973373413087 0.016589402198791504
v -0.051552025794982914 0.18544973373413087 0.016898411750793457
f 751 752 753
v -0.0010143442153930664 0.18554523468017578 0.017295502662658693
v -0.050600969314575195 0.1856558418273926 0.017184895515441896
v -0.050600969314575195 0.18554523468017578 0.017295502662658693
f 754 755 756
v -0.0012307496070861816 0.18547420501708986 -0.04290757274627686
v -0.0013435120582580566 0.18554523468017578 -0.04282565212249756
v -0.0011106557846069336 0.18547420501708986 -0.04267188167572022
f 757 758 759
v -0.051099769592285155 0.18579523086547853 -0.042572680473327636
v -0.05110097122192383 0.18594972610473634 -0.04241061305999756
v -0.05107649993896485 0.18594972610473634 -0.0425651273727417
f 760 761 762
v -0.050600969314575195 0.18554523468017578 -0.043116713523864744
v -0.0019147653579711914 0.1856558418273926 -0.04300610637664795
v -0.0019147653579711914 0.18554523468017578 -0.043116713523864744
f 763 764 765
v -0.0012086577415466309 0.18554523468017578 -0.04241061305999756
v -0.0013192744255065918 0.1856558418273926 -0.030600234031677248
v -0.0012086577415466309 0.18554523468017578 -0.030600234031677248
f 766 767 768
v -0.0019147653579711914 0.18554523468017578 -0.02989413356781006
v -0.032019807815551755 0.1856558418273926 -0.030004740715026856
v -0.032019807815551755 0.18554523468017578 -0.02989413356781006
f 769 770 771
v -0.032313701629638675 0.18554523468017578 -0.02960024929046631
v -0.032424318313598634 0.1856558418273926 -0.02106408214569092
v -0.032313701629638675 0.18554523468017578 -0.02106408214569092
f 772 773 774
v -0.032019807815551755 0.18554523468017578 -0.02077019786834717
v -0.004165780067443847 0.1856558418273926 -0.020659590721130373
v -0.004165780067443847 0.18554523468017578 -0.02077019786834717
f 775 776 777
v -0.003459672451019287 0.18554523468017578 -0.02006409740447998
v -0.003570289134979248 0.1856558418273926 -0.00882670497894287
v -0.003459672451019287 0.18554523468017578 -0.00882670497894287
f 778 779 780
v -0.0038718886375427248 0.18735424041748047 -0.00882670497894287
v -0.0037612719535827636 0.18724363327026367 -0.02006409740447998
v -0.0038718886375427248 0.18735424041748047 -0.02006409740447998
f 781 782 783
v -0.050600969314575195 0.1874497413635254 0.016589402198791504
v -0.03301980686187744 0.1874497413635254 -0.007826701164245605
v -0.050600969314575195 0.1874497413635254 -0.04241061305999756
f 784 785 786
v -0.10058503341674804 0.18730194091796876 -0.042626391410827635
v -0.1005783863067627 0.18735424041748047 -0.042514010429382326
v -0.10040804100036621 0.18742038726806642 -0.04254292583465576
f 787 788 789
v -0.08066758346557618 0.18742038726806642 -0.04254292583465576
v -0.08077236366271973 0.1874497413635254 -0.04241061305999756
v -0.08062772941589355 0.18742527008056642 -0.042464953422546386
f 790 791 792
v -0.10060186576843262 0.18579523086547853 -0.04284178829193115
v -0.10058792304992677 0.18594972610473634 -0.042821684837341306
v -0.10045969200134278 0.18579523086547853 -0.04291121578216553
f 793 794 795
v -0.12278669548034668 0.1872049140930176 0.016888665199279784
v -0.12260789108276367 0.18721410751342774 0.016993416786193847
v -0.12267481994628907 0.187301082611084 0.016885708808898926
f 796 797 798
v -0.08010561180114746 0.18547420501708986 -0.04293051815032959
v -0.080370361328125 0.18554523468017578 -0.042991114616394044
v -0.08021553230285644 0.18554523468017578 -0.042844820976257324
f 799 800 801
v -0.08062324714660644 0.18594972610473634 -0.042887850761413576
v -0.08077236366271973 0.1869497299194336 -0.04291060543060303
v -0.08062324714660644 0.1869497299194336 -0.042887850761413576
f 802 803 804
v -0.05835626792907715 0.18735483169555664 0.016750000953674318
v -0.058404585838317875 0.187301082611084 0.016885708808898926
v -0.05829271507263184 0.1872049140930176 0.016888665199279784
f 805 806 807
v -0.12328959655761719 0.18547420501708986 0.016826237678527832
v -0.12315579605102539 0.18554523468017578 0.01678719425201416
v -0.12332284164428711 0.18547420501708986 0.016557454109191894
f 808 809 810
v -0.10449457359313966 0.18742527008056642 0.016633156776428223
v -0.10464275550842285 0.1874497413635254 0.016589402198791504
v -0.10452862930297852 0.1874192237854004 0.01671803379058838
f 811 812 813
v -0.05833411407470703 0.18547420501708986 0.017391518592834474
v -0.05860144805908203 0.18544973373413087 0.017589386940002442
v -0.05828525733947754 0.18544973373413087 0.017538098335266112
f 814 815 816
v -0.05775655460357666 0.18547420501708986 0.01655749225616455
v -0.05789584350585938 0.18554523468017578 0.016562756538391114
v -0.05778981399536133 0.18547420501708986 0.01682627582550049
f 817 818 819
v -0.07721849632263184 0.18729467391967775 0.016798314094543458
v -0.07731004905700684 0.18724363327026367 0.016706704139709472
v -0.07734056663513184 0.18710113525390626 0.01681883716583252
f 820 821 822
v -0.10413658332824707 0.18547420501708986 0.01726662540435791
v -0.10404407691955567 0.18544973373413087 0.017390393257141114
v -0.10394879531860352 0.18547420501708986 0.017072381019592287
f 823 824 825
v -0.10140139770507813 0.18710424423217775 0.007385300636291504
v -0.10138131332397461 0.1869497299194336 0.007399262428283692
v -0.10128490638732911 0.18710424423217775 0.0072647943496704104
f 826 827 828
v -0.07742668342590332 0.18547420501708986 0.017268418312072754
v -0.07751874160766602 0.18544973373413087 0.017392510414123534
v -0.07718818855285645 0.18547420501708986 0.017392186164855956
f 829 830 831
v -0.08066596221923829 0.18724363327026367 0.007089394569396973
v -0.08066596221923829 0.18710424423217775 0.00716042423248291
v -0.08047912788391114 0.18724363327026367 0.007119473457336426
f 832 833 834
v -0.10113348197937012 0.18567853927612304 0.007297562599182129
v -0.10097091865539551 0.18579523086547853 0.007209366798400879
v -0.10111487579345703 0.18582664489746095 0.007222165107727051
f 835 836 837
v -0.08050419044494629 0.1856782913208008 0.007297410011291504
v -0.08066596221923829 0.18579523086547853 0.007209366798400879
v -0.08066596221923829 0.1856558418273926 0.007280396461486816
f 838 839 840
v -0.0803680534362793 0.18594972610473634 0.0072833337783813476
v -0.0802571029663086 0.1869497299194336 0.007397088050842286
v -0.0803680534362793 0.1869497299194336 0.0072833337783813476
f 841 842 843
v -0.10097091865539551 0.18710424423217775 0.00716042423248291
v -0.08066596221923829 0.1869497299194336 0.007184895515441895
v -0.08066596221923829 0.18710424423217775 0.00716042423248291
f 844 845 846
v -0.07692291450500488 0.1869497299194336 0.01708939456939697
v -0.05860144805908203 0.1869497299194336 0.01708939456939697
v -0.07692291450500488 0.18710424423217775 0.017064923286437987
f 847 848 849
v -0.05815631103515625 0.18710424423217775 0.01642212772369385
v -0.08030431938171387 0.1869497299194336 -0.0425864896774292
v -0.08032722663879395 0.18710424423217775 -0.04257788753509521
f 850 851 852
v -0.09016853523254395 0.1874497413635254 -0.026451216697692872
v -0.08994636726379394 0.1874497413635254 -0.026224757194519045
v -0.08077236366271973 0.1874497413635254 -0.04241061305999756
f 853 854 855
v -0.10145046424865722 0.18594972610473634 0.007543305397033692
v -0.1041632194519043 0.1869497299194336 0.016730984687805175
v -0.1041632194519043 0.18594972610473634 0.016730984687805175
f 856 857 858
v -0.09699018669128417 0.18724363327026367 -0.005805197715759277
v -0.0968037338256836 0.18710424423217775 -0.005789862632751465
v -0.09694881629943848 0.18710424423217775 -0.005862914085388184
f 859 860 861
v -0.09007243347167969 0.18742527008056642 -0.026135416984558107
v -0.08994636726379394 0.1874497413635254 -0.026224757194519045
v -0.09026027870178223 0.18742527008056642 -0.026326876640319824
f 862 863 864
v -0.09098442268371582 0.18735424041748047 -0.026316786766052248
v -0.09076315116882325 0.18724363327026367 -0.026242018699645996
v -0.09076331329345703 0.18735424041748047 -0.02635264492034912
f 865 866 867
v -0.09692445945739746 0.18554523468017578 -0.006374617576599121
v -0.0969093246459961 0.18552745819091798 -0.006259184837341308
v -0.09679109764099121 0.18547420501708986 -0.006334105491638184
f 868 869 870
v -0.08414254379272461 0.18735424041748047 -0.006496478080749512
v -0.08424828720092774 0.18724363327026367 -0.006463995933532715
v -0.08411150169372558 0.18735424041748047 -0.0062796506881713865
f 871 872 873
v -0.08439574432373047 0.18710424423217775 -0.005977488517761231
v -0.08441541862487793 0.1869497299194336 -0.005992022514343262
v -0.08451155853271484 0.18710424423217775 -0.0058632192611694335
f 874 875 876
v -0.09111513328552247 0.18567209243774416 -0.025866480827331544
v -0.09108690452575684 0.1857725715637207 -0.02598300075531006
v -0.09120644760131837 0.18578144073486327 -0.025802641868591308
f 877 878 879
v -0.09031838607788086 0.18578060150146486 -0.025802680015563965
v -0.09030767631530762 0.18579523086547853 -0.02578614330291748
v -0.09035373878479004 0.18587244033813477 -0.02592427349090576
f 880 881 882
v -0.08444595527648927 0.18561683654785158 -0.0062559423446655275
v -0.0844661636352539 0.18564252853393556 -0.00610983943939209
v -0.08436863136291504 0.18573034286499024 -0.006270552635192871
f 883 884 885
v -0.08431758117675782 0.18594972610473634 -0.006282435417175293
v -0.08431758117675782 0.1869497299194336 -0.006282435417175293
v -0.08433956336975097 0.18594972610473634 -0.006435976982116699
f 886 887 888
v -0.0848175449371338 0.18735424041748047 -0.005583086967468262
v -0.09664325904846191 0.18735424041748047 -0.005583086967468262
v -0.0848175449371338 0.18742527008056642 -0.0054436979293823245
f 889 890 891
v -0.0848175449371338 0.18544973373413087 -0.006289187431335449
v -0.09076225471496582 0.18544973373413087 -0.025646544456481932
v -0.09664325904846191 0.18544973373413087 -0.006289187431335449
f 892 893 894
v -0.05951439571380615 0.17102121353149413 -0.05096863842010498
v -0.05944944095611572 0.17046813964843752 -0.05052617168426514
v -0.05980740261077881 0.17072820663452148 -0.05096863842010498
f 895 896 897
v 0.2753693943023682 0.1706632614135742 -0.05052617168426514
v 0.27533468055725097 0.1703011703491211 -0.049968634605407715
v 0.2752024059295654 0.1704334259033203 -0.049968634605407715
f 898 899 900
v -0.05930453968048096 -0.1842350196838379 -0.049968634605407715
v -0.05944944095611572 -0.18456867218017578 -0.05052617168426514
v -0.059574715614318846 -0.18432281494140626 -0.05052617168426514
f 901 902 903
v -0.059235918045043946 0.16801591873168945 0.011558789253234864
v -0.059113485336303714 0.16807138442993164 0.012285336494445801
v -0.05922138404846192 0.16727115631103515 0.011887558937072754
f 904 905 906
v -0.057704450607299805 0.1696574592590332 0.013013867378234864
v -0.05750382614135742 0.16913049697875976 0.013335522651672364
v -0.05793770980834961 0.16950860977172852 0.013031014442443848
f 907 908 909
v -0.058129932403564455 0.16934356689453126 0.013036126136779786
v -0.05858153533935547 0.16949831008911134 0.012648800849914552
v -0.05844349098205567 0.1696571159362793 0.012655610084533692
f 910 911 912
v -0.05898715209960938 0.17004188537597656 0.011430100440979004
v -0.05905833435058594 0.16994407653808594 0.011393860816955566
v -0.05919219207763672 0.1701548194885254 0.00973133945465088
f 913 914 915
v 0.2748509769439697 -0.18593223571777345 -0.05125271892547607
v 0.2748509769439697 -0.185374698638916 -0.05096863842010498
v 0.27543254661560057 -0.1858401107788086 -0.05125271892547607
f 916 917 918
v 0.27543254661560057 -0.1858401107788086 -0.05125271892547607
v 0.2756235294342041 -0.18642791748046875 -0.05135060405731201
v 0.2748509769439697 -0.18593223571777345 -0.05125271892547607
f 919 920 921
v 0.27535098838806155 0.16911062240600586 0.011106995582580567
v 0.27533315467834474 0.16850070953369142 0.011733559608459473
v 0.27529931831359866 0.1696515655517578 0.011253212928771973
f 922 923 924
v 0.275205114364624 0.16922758102416993 0.011978196144104005
v 0.27502052116394043 0.16964942932128907 0.012115506172180176
v 0.2751734523773193 0.16994483947753908 0.011393517494201661
f 925 926 927
v 0.27492164421081544 0.1697933006286621 0.012144574165344238
v 0.27469672966003417 0.1694989585876465 0.012648457527160645
v 0.27455837059021 0.1696573066711426 0.012655610084533692
f 928 929 930
v 0.273161771774292 0.1699325180053711 0.012917393684387208
v 0.2736630802154541 0.1701568603515625 0.012506474494934082
v 0.27420921134948734 0.1699213218688965 0.012626065254211427
f 931 932 933
v 0.27500549125671386 0.17042526245117187 0.00939961338043213
v 0.2748509769439697 0.17044973373413086 -0.04935059642791748
v 0.27500549125671386 0.17042526245117187 -0.04935059642791748
f 934 935 936
v -0.05838208389282227 -0.1818320083618164 0.013261136054992677
v -0.05844363403320313 -0.183018798828125 0.013013867378234864
v -0.05871872138977051 -0.182362060546875 0.012917222023010254
f 937 938 939
v -0.05844330024719238 -0.18375783920288086 0.012655610084533692
v -0.0585816593170166 -0.18359949111938476 0.012648457527160645
v -0.05829478454589844 -0.18325206756591797 0.013031014442443848
f 940 941 942
v -0.05882806968688965 -0.1843014907836914 0.011430100440979004
v -0.05843597602844238 -0.18422012329101564 0.012114800453186036
v -0.05873026084899902 -0.18437267303466798 0.011393860816955566
f 943 944 945
v -0.05743275833129883 -0.184519100189209 0.011779297828674316
v -0.05680209827423096 -0.18455026626586915 0.011558789253234864
v -0.057376391410827635 -0.18455026626586915 0.011383198738098144
f 946 947 948
v 0.2734897403717041 -0.18455026626586915 0.011382512092590332
v 0.27340194511413574 -0.18453243255615234 0.011733559608459473
v 0.2740118579864502 -0.18455026626586915 0.011106995582580567
f 949 950 951
v 0.2736625080108643 -0.18425735473632812 0.012507122993469238
v 0.2742098598480225 -0.18402202606201173 0.012625645637512208
v 0.27455068397521976 -0.18421979904174804 0.012115506172180176
f 952 953 954
v 0.27440021324157715 -0.1838960075378418 0.012648457527160645
v 0.274052770614624 -0.18360912322998046 0.013031014442443848
v 0.27424499320983886 -0.18344409942626955 0.013036126136779786
f 955 956 957
v 0.2748337535858154 -0.18236106872558594 0.012917393684387208
v 0.27504342842102053 -0.18163692474365234 0.012710160255432128
v 0.2752285556793213 -0.18217191696166993 0.012285336494445801
f 958 959 960
v 0.27535098838806155 -0.18405025482177734 0.00939961338043213
v 0.27535098838806155 -0.18405025482177734 -0.04935059642791748
v 0.27532651710510253 -0.1842047691345215 0.00939961338043213
f 961 962 963
v -0.059235918045043946 0.1699497413635254 0.00939961338043213
v -0.059235918045043946 0.1699497413635254 -0.04935059642791748
v -0.059211446762084965 0.1701042366027832 0.00939961338043213
f 964 965 966
v 0.288350980758667 0.18194995880126955 -0.05135060405731201
v 0.2763204555511475 0.17197227478027344 -0.05135060405731201
v 0.2756235294342041 0.17232738494873048 -0.05135060405731201
f 967 968 969
v -0.058316990852355956 0.17044973373413086 0.010747975349426269
v -0.05573614311218262 0.17044973373413086 0.011649388313293457
v -0.057896797180175784 0.17044973373413086 0.011106995582580567
f 970 971 972
v 0.27535098838806155 -0.1840216827392578 0.009868325233459473
v 0.27535098838806155 -0.18389926910400392 0.010324620246887206
v 0.27535098838806155 -0.18105049133300782 0.011649388313293457
f 973 974 975
v -0.24647501182556153 0.18094995498657226 -0.04835061168670654
v -0.24637712669372558 0.18094995498657226 -0.04896863079071045
v -0.2464604778289795 0.18127317428588868 -0.0485890302658081
f 976 977 978
v -0.2456765193939209 0.18439807891845703 -0.04795483684539795
v -0.2459464282989502 0.1844497299194336 -0.04656952953338623
v -0.24599998664855957 0.18444881439208985 -0.04641642665863037
f 979 980 981
v -0.24496637535095214 0.18294095993041992 -0.05003913021087646
v -0.24536884498596193 0.18334375381469728 -0.049737349510192874
v -0.2455338878631592 0.18315153121948244 -0.049732237815856936
f 982 983 984
v -0.24437027168273925 0.18190641403198243 -0.0503418836593628
v -0.2441692943572998 0.18214401245117187 -0.05034197902679444
v -0.24447118949890137 0.18244598388671876 -0.05026585674285889
f 985 986 987
v 0.2893509845733643 0.18259021759033203 -0.0480844030380249
v 0.2893509845733643 0.18311069488525392 -0.04780966854095459
v 0.2893497257232666 0.1832248306274414 -0.04783421611785889
f 988 989 990
v 0.2893500690460205 0.18397470474243163 -0.04641642665863037
v 0.2893509845733643 0.18394973754882812 -0.046100836753845215
v 0.28932651329040526 0.18410425186157228 -0.046100836753845215
f 991 992 993
v 0.28824500846862794 0.183343563079834 -0.049737349510192874
v 0.28855855751037596 0.18365711212158203 -0.04935681438446045
v 0.2884002094268799 0.18379547119140624 -0.0493496618270874
f 994 995 996
v 0.28710313606262206 0.1826537322998047 -0.05026551342010498
v 0.2876189022064209 0.1831304931640625 -0.05003674602508545
v 0.28734731483459475 0.18329769134521484 -0.050027819633483885
f 997 998 999
v 0.2861744289398193 0.18443519592285157 -0.0485890302658081
v 0.2874019603729248 0.1844318962097168 -0.04843476390838623
v 0.2869196300506592 0.1844497299194336 -0.04826052761077881
f 1000 1001 1002
v -0.24616745185852051 -0.19563692092895507 -0.049411383628845215
v -0.2460930461883545 -0.19505048751831056 -0.04952616786956787
v -0.24637712669372558 -0.19505048751831056 -0.04896863079071045
f 1003 1004 1005
v -0.24568258476257324 -0.19775764465332032 -0.04935681438446045
v -0.24593925666809083 -0.19801437377929687 -0.04885476207733155
v -0.24581857872009277 -0.19812091827392578 -0.048845778465270995
f 1006 1007 1008
v -0.24517681312561035 -0.19760913848876954 -0.049732237815856936
v -0.24552423667907716 -0.19789600372314453 -0.0493496618270874
v -0.2453339023590088 -0.19802202224731447 -0.049326849937438966
f 1009 1010 1011
v -0.2439421672821045 -0.19845502853393554 -0.04892439937591553
v -0.24341526222229004 -0.1982820510864258 -0.049349928855895994
v -0.24478653144836426 -0.1982573699951172 -0.049208327293396
f 1012 1013 1014
v -0.2436626262664795 0.18250776290893556 0.027639740943908694
v -0.24385679435729982 0.1821632957458496 0.027649392127990724
v -0.24393169593811034 0.18234498977661134 0.027640685081481934
f 1015 1016 1017
v -0.24329879951477051 0.18311653137207032 0.027529715538024902
v -0.2429752368927002 0.1830677604675293 0.027551506996154787
v -0.24307625007629394 0.18269777297973633 0.027633637428283692
f 1018 1019 1020
v -0.24437027168273925 0.18190641403198243 0.027640685081481934
v -0.24418857765197755 0.18183151245117188 0.027649392127990724
v -0.2445330448150635 0.18163734436035156 0.027639740943908694
f 1021 1022 1023
v -0.24642336082458496 0.18365123748779297 0.02525361919403076
v -0.2464740962982178 0.18397470474243163 0.023715218544006347
v -0.24629743766784667 0.18394407272338867 0.025393866539001466
f 1024 1025 1026
v 0.28617240715026854 -0.19853572845458986 -0.04858876323699951
v 0.28697263526916506 -0.19842784881591796 -0.04898655986785889
v 0.2858512096405029 -0.19845237731933593 -0.04896863079071045
f 1027 1028 1029
v 0.28820920753479007 -0.1980218505859375 -0.04932728862762451
v 0.2886947994232178 -0.1981212615966797 -0.048845320701599124
v 0.28839956092834473 -0.19789588928222657 -0.04935000514984131
f 1030 1031 1032
v 0.28913518714904785 -0.19846170425415038 -0.04644007778167725
v 0.28914487648010256 -0.1984547805786133 -0.046100836753845215
v 0.28920436668396 -0.1984036636352539 -0.0464433012008667
f 1033 1034 1035
v 0.28882274436950683 -0.19740915298461914 -0.049326849937438966
v 0.28902051734924317 -0.1977499771118164 -0.04881672954559326
v 0.2892051296234131 -0.19732810974121096 -0.04867940044403076
f 1036 1037 1038
v 0.2893509845733643 0.18201839447021484 0.025559309959411622
v 0.28933315086364747 0.18250070571899416 0.025733555793762207
v 0.2893509845733643 0.18258848190307617 0.025382508277893068
f 1039 1040 1041
v 0.28905807304382325 0.18276124954223633 0.026507119178771972
v 0.28925575065612796 0.18191688537597656 0.02622318172454834
v 0.2890827732086182 0.1813899803161621 0.02664872074127197
f 1042 1043 1044
v 0.2884098415374756 0.18315153121948244 0.027031020164489748
v 0.2880317478179932 0.18271764755249023 0.027335528373718262
v 0.28784234809875486 0.18294095993041992 0.027337912559509278
f 1045 1046 1047
v 0.28766307640075683 0.18415685653686523 0.02650648021697998
v 0.28697263526916506 0.18432729721069335 0.0262853422164917
v 0.287547815322876 0.18441856384277344 0.025779303550720216
f 1048 1049 1050
v -0.24647501182556153 -0.19721115112304688 0.0251069917678833
v -0.24647501182556153 -0.19668903350830078 0.025382508277893068
v -0.24645717811584472 -0.1966012191772461 0.025733555793762207
f 1051 1052 1053
v -0.2461821002960205 -0.19686178207397462 0.026507119178771972
v -0.24620681953430176 -0.1954905128479004 0.02664872074127197
v -0.24595781517028809 -0.19636205673217774 0.026917227745056154
f 1054 1055 1056
v -0.24593912315368652 -0.19801450729370118 0.02615355396270752
v -0.24604566764831542 -0.19789382934570313 0.026144570350646972
v -0.24582075309753418 -0.19759948730468752 0.026648463249206545
f 1057 1058 1059
v -0.24307625007629394 -0.19679832458496094 0.027633627891540526
v -0.24329862785339357 -0.1972170639038086 0.027529696464538574
v -0.2436626262664795 -0.19660829544067382 0.027639740943908694
f 1060 1061 1062
v -0.24525011253356935 -0.19854900360107422 0.025133008003234862
v -0.24513597679138185 -0.19855026245117188 0.0251084508895874
v -0.24555441093444824 -0.19855026245117188 0.024748963356018068
f 1063 1064 1065
v 0.2858512096405029 -0.19845237731933593 0.02626743221282959
v 0.2861744289398193 -0.19853572845458986 0.025887822151184084
v 0.2858512096405029 -0.19855026245117188 0.025649394035339355
f 1066 1067 1068
v 0.28716277885437014 -0.19803306579589844 0.026917227745056154
v 0.28663274574279785 -0.19769643783569335 0.027261141777038575
v 0.2878195171356201 -0.19775798797607422 0.027013873100280764
f 1069 1070 1071
v 0.2876189022064209 -0.19723102569580078 0.027335528373718262
v 0.28710313606262206 -0.19675426483154299 0.027564295768737795
v 0.2873472385406494 -0.19654644012451172 0.027564648628234864
f 1072 1073 1074
v 0.2890581111907959 -0.19686237335205078 0.02650648021697998
v 0.2892051868438721 -0.19732667922973635 0.02597852611541748
v 0.2890208225250244 -0.1977503204345703 0.026114806175231934
f 1075 1076 1077
v 0.2858512096405029 -0.197725830078125 0.027267426490783692
v -0.2429752368927002 -0.19816829681396486 0.026824969291687012
v -0.2429752368927002 -0.197725830078125 0.027267426490783692
f 1078 1079 1080
v -0.24626890373229982 0.184354248046875 0.02339961910247803
v -0.24637952995300294 0.18424362182617188 -0.046100836753845215
v -0.24626890373229982 0.184354248046875 -0.046100836753845215
f 1081 1082 1083
v 0.275850980758667 0.17344972610473633 -0.05035060024261475
v 0.2858512096405029 0.1824497413635254 -0.05035060024261475
v -0.059735915184021 0.17344972610473633 -0.05035060024261475
f 1084 1085 1086
v 0.2858512096405029 0.1844497299194336 0.025649394035339355
v 0.28869998741149905 0.1844497299194336 0.02432461643218994
v 0.288430383682251 0.1844497299194336 0.024748963356018068
f 1087 1088 1089
v 0.2858512096405029 -0.19855026245117188 -0.04835061168670654
v -0.2429752368927002 -0.19855026245117188 -0.04835061168670654
v -0.24597501945495606 -0.19855026245117188 -0.046100836753845215
f 1090 1091 1092
v 0.2893509845733643 -0.19789831161499025 -0.04702694988250732
v 0.2893509845733643 -0.19505048751831056 -0.04835061168670654
v 0.2893509845733643 -0.19763134002685548 -0.04744917964935303
f 1093 1094 1095
v -0.06030453872680664 0.17113449096679687 -0.04896863079071045
v -0.06023591709136963 0.17094972610473633 -0.04835061168670654
v -0.06021144104003907 0.17110424041748049 -0.04835061168670654
f 1096 1097 1098
v 0.27717540550231934 0.17094972610473633 -0.049968634605407715
v 0.27773294258117676 0.17094972610473633 -0.05025271511077881
v 0.27711059379577635 0.17135900497436524 -0.049968634605407715
f 1099 1100 1101
v 0.27641959953308104 0.17113449096679687 -0.04896863079071045
v 0.276689775466919 0.17122228622436525 -0.04952616786956787
v 0.27633468437194825 0.17130115509033203 -0.04896863079071045
f 1102 1103 1104
v -0.06051439476013184 -0.1861217498779297 -0.049968634605407715
v -0.06000846099853516 -0.18588905334472658 -0.04952616786956787
v -0.06025432300567627 -0.18576377868652344 -0.04952616786956787
f 1105 1106 1107
v -0.06019218635559082 0.17115486145019532 0.010731152534484863
v -0.060235006332397464 0.1709747314453125 0.010714997291564941
v -0.0601842565536499 0.1706515693664551 0.012253216743469238
f 1108 1109 1110
v -0.05908386421203613 0.1694460678100586 0.014326619148254395
v -0.05861962985992432 0.16891618728637695 0.014561566352844238
v -0.05843991470336914 0.16920188903808595 0.01456429386138916
f 1111 1112 1113
v -0.058916675567626954 0.16971763610839843 0.01433552646636963
v -0.05843991470336914 0.16920188903808595 0.01456429386138916
v -0.05823208045959473 0.16944599151611328 0.014564656257629394
f 1114 1115 1116
v -0.059094149589538576 0.17092132568359375 0.013626069068908692
v -0.058046714782714844 0.17093252182006835 0.013917378425598145
v -0.05854801368713379 0.17115686416625978 0.013506478309631347
f 1117 1118 1119
v 0.2776408367156982 -0.18563182830810548 -0.05025271511077881
v 0.27787353324890135 -0.18651973724365234 -0.05035060024261475
v 0.2782286243438721 -0.18582281112670898 -0.05035060024261475
f 1120 1121 1122
v -0.059735915184021 -0.18755027770996094 -0.05035060024261475
v 0.275850980758667 -0.18755027770996094 -0.05035060024261475
v -0.059735915184021 -0.1869322204589844 -0.05025271511077881
f 1123 1124 1125
v 0.27440902519226074 0.16863733291625976 0.014639748573303224
v 0.2750177936553955 0.16827335357666015 0.014529694557189941
v 0.2747346858978272 0.1689162826538086 0.014561566352844238
f 1126 1127 1128
v 0.2740452747344971 0.16914402008056642 0.014640759468078614
v 0.2745549945831299 0.16920183181762696 0.014564312934875489
v 0.27434724617004397 0.16944589614868164 0.014564656257629394
f 1129 1130 1131
v 0.2750315837860107 0.16971742630004882 0.014335507392883301
v 0.2747346858978272 0.1689162826538086 0.014561566352844238
v 0.27519893455505373 0.1694455337524414 0.014326619148254395
f 1132 1133 1134
v 0.27571965980529783 0.1680804443359375 0.014107636451721191
v 0.2759690265655518 0.1679499626159668 0.01382496738433838
v 0.27604343223571776 0.168536376953125 0.013710164070129394
f 1135 1136 1137
v -0.06021144104003907 -0.18520477294921875 0.010399617195129395
v -0.06019219589233399 -0.18525535583496094 0.010731343269348145
v -0.060235006332397464 -0.18507522583007813 0.010715226173400878
f 1138 1139 1140
v -0.05976091575622559 -0.18554935455322266 0.010714997291564941
v -0.05994103622436524 -0.18550653457641603 0.010731152534484863
v -0.05989042472839356 -0.1855257797241211 0.010399617195129395
f 1141 1142 1143
v -0.0600201530456543 -0.1854616928100586 0.010738762855529785
v -0.06002980899810791 -0.1854547691345215 0.010399617195129395
v -0.05994103622436524 -0.18550653457641603 0.010731152534484863
f 1144 1145 1146
v -0.05938214015960693 -0.18283258438110353 0.01426094913482666
v -0.059411489486694335 -0.18205049514770508 0.014267434120178222
v -0.059604589462280276 -0.1821809768676758 0.014107636451721191
f 1147 1148 1149
v -0.05989042472839356 -0.1855257797241211 0.010399617195129395
v -0.06002980899810791 -0.1854547691345215 -0.04835061168670654
v -0.05989042472839356 -0.1855257797241211 -0.04835061168670654
f 1150 1151 1152
v 0.2745990352630615 -0.1821514892578125 0.014633625984191895
v 0.27435098457336426 -0.18205049514770508 0.014649399757385254
v 0.27427757072448733 -0.18251394271850585 0.014649399757385254
f 1153 1154 1155
v 0.2748423557281494 -0.18404148101806642 0.014337910652160646
v 0.2743471508026123 -0.18354652404785157 0.014564656257629394
v 0.2741030673980713 -0.1837542724609375 0.014564312934875489
f 1156 1157 1158
v 0.27505309867858885 -0.18460952758789062 0.014030770301818847
v 0.27434676933288576 -0.18439823150634765 0.014326619148254395
v 0.2748198299407959 -0.18475826263427736 0.014013546943664551
f 1159 1160 1161
v 0.27343763160705564 -0.18524269104003907 0.013710164070129394
v 0.2728512172698975 -0.18545238494873048 0.013267430305480957
v 0.27397264289855955 -0.18542783737182617 0.013285340309143067
f 1162 1163 1164
v 0.27600549507141114 -0.1855257797241211 0.010399617195129395
v 0.275850980758667 -0.1855502700805664 -0.04835061168670654
v 0.27600549507141114 -0.1855257797241211 -0.04835061168670654
f 1165 1166 1167
v 0.275850980758667 0.17283170700073242 -0.05025271511077881
v -0.059735915184021 0.17344972610473633 -0.05035060024261475
v -0.059735915184021 0.17283170700073242 -0.05025271511077881
f 1168 1169 1170
v 0.2728512172698975 -0.1855502700805664 0.012649392127990723
v 0.27569997596740725 -0.1855502700805664 0.011324604988098145
v 0.2754303722381592 -0.1855502700805664 0.01174895191192627
f 1171 1172 1173
v -0.05794948768615723 0.16883150100708008 0.014649399757385254
v -0.05816250991821289 0.1684134101867676 0.014649399757385254
v -0.05823591423034668 0.1679499626159668 0.014649399757385254
f 1174 1175 1176
v 0.2903754596710205 -0.12457624435424805 0.007092427253723145
v 0.29044647026062015 -0.12458871841430665 0.007371186256408691
v 0.29044647026062015 -0.12468900680541993 0.0071743478775024416
f 1177 1178 1179
v 0.2903540210723877 -0.19952579498291015 0.007273415565490723
v 0.29026319313049315 -0.19955026626586914 0.0073984041213989256
v 0.2901669673919678 -0.19952579498291015 0.007086361885070801
f 1180 1181 1182
v 0.2932417850494385 -0.12510679244995118 0.007317875862121582
v 0.2931448726654053 -0.12526026725769043 0.007184895515441895
v 0.2931224994659424 -0.12510679244995118 0.0071985902786254885
f 1183 1184 1185
v 0.29065963554382324 -0.12472220420837403 0.02777439022064209
v 0.2906237773895264 -0.12470852851867677 0.027788704872131347
v 0.29069783973693847 -0.12473783493041993 0.027923964500427247
f 1186 1187 1188
v 0.29068506050109866 -0.12495640754699708 0.02854141139984131
v 0.2904223804473877 -0.12501813888549804 0.028577956199645996
v 0.29065936851501467 -0.12502851486206054 0.02858914279937744
f 1189 1190 1191
v 0.29069783973693847 -0.12473783493041993 0.027923964500427247
v 0.2906237773895264 -0.12470852851867677 0.027788704872131347
v 0.29061126518249514 -0.1247107982635498 0.027863863945007325
f 1192 1193 1194
v 0.2903390674591064 -0.12440443992614747 0.027181262016296386
v 0.29026361274719237 -0.12449514389038087 0.027586535453796388
v 0.2903659420013428 -0.12447282791137695 0.027300957679748536
f 1195 1196 1197
v 0.2898038654327393 -0.12438365936279297 0.028038739204406738
v 0.2899690227508545 -0.12426026344299317 0.027824963569641113
v 0.28952655601501465 -0.12426026344299317 0.028267430305480956
f 1198 1199 1200
v 0.2903754596710205 0.12505571365356447 0.007092427253723145
v 0.29044647026062015 0.12516847610473633 0.0071743478775024416
v 0.2903754596710205 0.12493562698364258 0.007328118324279785
f 1201 1202 1203
v 0.2900560932159424 -0.19950653076171876 -0.047432356834411625
v 0.2901448802947998 -0.19945476531982423 -0.04710084056854248
v 0.2900054912567139 -0.19952579498291015 -0.04710084056854248
f 1204 1205 1206
v 0.2898337535858154 -0.19736106872558595 -0.05061860179901123
v 0.29005811500549317 -0.19786235809326172 -0.05020768260955811
v 0.28982257652282717 -0.19840850830078124 -0.05032727336883545
f 1207 1208 1209
v 0.2880452709197998 -0.19724454879760742 -0.05134196376800537
v 0.28824624824523926 -0.19700695037841798 -0.05134188747406006
v 0.28855500984191895 -0.197302360534668 -0.051265536308288576
f 1210 1211 1212
v 0.2891288356781006 -0.19940441131591796 -0.04967940425872803
v 0.2895528202056885 -0.19949859619140625 -0.048954421043396
v 0.28840194511413575 -0.19953243255615236 -0.0494347677230835
f 1213 1214 1215
v 0.2898509769439697 -0.19955026626586914 0.006589402198791504
v 0.2898509769439697 -0.19955026626586914 -0.04710084056854248
v 0.2900054912567139 -0.19952579498291015 0.006589402198791504
f 1216 1217 1218
v 0.290850980758667 -0.19952579498291015 0.007434891700744629
v 0.2928509883880615 -0.19952579498291015 0.007434891700744629
v 0.290850980758667 -0.19955026626586914 0.007589386940002441
f 1219 1220 1221
v 0.2930059223175049 -0.12520509719848633 0.028621567726135253
v 0.2930054836273193 -0.12526026725769043 0.028624924659729004
v 0.2931448726654053 -0.12526026725769043 0.028553904533386232
f 1222 1223 1224
v 0.2902531032562256 0.12473974227905274 0.027267426490783692
v 0.29032598304748536 0.1248076629638672 0.027054366111755372
v 0.29022525596618653 0.12481937408447266 0.02739467525482178
f 1225 1226 1227
v 0.2907312183380127 0.1253481101989746 0.02845234775543213
v 0.2905953006744385 0.12533357620239258 0.028415831565856933
v 0.2906468753814697 0.12527278900146485 0.028287028312683107
f 1228 1229 1230
v 0.29046737480163576 0.12509138107299805 0.02758397960662842
v 0.29048576164245604 0.12508861541748048 0.02748649501800537
v 0.2905459003448486 0.1251535415649414 0.027743815422058105
f 1231 1232 1233
v 0.29008266258239745 0.12497873306274414 0.02782643222808838
v 0.29011514472961425 0.1250367546081543 0.027885178565979003
v 0.289876802444458 0.12508975982666015 0.0281398286819458
f 1234 1235 1236
v 0.2902663593292236 0.12548137664794923 0.028564385414123535
v 0.29008083152770997 0.12536485671997072 0.02845767879486084
v 0.29035133171081545 0.12540403366088868 0.028495768547058105
f 1237 1238 1239
v 0.29069646644592284 0.12521526336669922 0.007589386940002441
v 0.290850980758667 0.1252397346496582 0.028149394035339358
v 0.29065963554382324 0.1252016830444336 0.02777439022064209
f 1240 1241 1242
v 0.290850980758667 0.1252397346496582 0.007589386940002441
v 0.2928509883880615 0.1252642059326172 0.007434891700744629
v 0.2928509883880615 0.1252397346496582 0.007589386940002441
f 1243 1244 1245
v 0.29042667198181155 0.18510423660278322 0.00689766788482666
v 0.29044647026062015 0.1849497413635254 0.006883286476135254
v 0.2903521900177002 0.18510423660278322 0.006751469612121582
f 1246 1247 1248
v 0.29005607414245604 0.1854060173034668 -0.047432547569274904
v 0.2900054912567139 0.18542526245117188 -0.04710084056854248
v 0.2901448802947998 0.18535425186157226 -0.04710084056854248
f 1249 1250 1251
v 0.28717460441589354 0.18411653518676757 -0.051230917930603026
v 0.2868512134552002 0.18406776428222657 -0.05125271892547607
v 0.2868512134552002 0.184625301361084 -0.05096863842010498
f 1252 1253 1254
v 0.28861867713928224 0.18413032531738283 -0.05103671169281006
v 0.288819845199585 0.1846577262878418 -0.05071475124359131
v 0.28905309486389164 0.1845090103149414 -0.050731974601745604
f 1255 1256 1257
v 0.28901778984069826 0.18227352142333986 -0.05123093700408936
v 0.28919893074035646 0.18344606399536134 -0.05102782344818115
v 0.2894971446990967 0.18273149490356447 -0.0509623441696167
f 1258 1259 1260
v 0.2899690227508545 0.18194995880126955 -0.05052617168426514
v 0.2899690227508545 -0.1960504913330078 -0.05052617168426514
v 0.28952655601501465 0.18194995880126955 -0.05096863842010498
f 1261 1262 1263
v -0.244561674118042 -0.19924270629882812 -0.05041138744354248
v -0.24410572242736817 -0.1989189338684082 -0.05080884075164795
v -0.24397524070739746 -0.19916830062866211 -0.05052617168426514
f 1264 1265 1266
v -0.2469391269683838 -0.19901451110839843 -0.04985476589202881
v -0.24722629737854004 -0.19914276123046876 -0.049131251335144045
v -0.2470456714630127 -0.19889381408691406 -0.04984578227996826
f 1267 1268 1269
v -0.24682075691223146 -0.19859949111938477 -0.05034966564178467
v -0.2471445484161377 -0.19874996185302735 -0.04981673336029053
v -0.24694677543640137 -0.19840915679931642 -0.05032685375213623
f 1270 1271 1272
v -0.24737978172302247 -0.1970174217224121 -0.049924403190612796
v -0.24737713050842286 -0.1960504913330078 -0.049968634605407715
v -0.2472068042755127 -0.19649051666259765 -0.05034993267059326
f 1273 1274 1275
v 0.2931448726654053 -0.1986697006225586 0.028190173149108887
v 0.2930054836273193 -0.1981607437133789 0.028528231620788574
v 0.2930054836273193 -0.19871145248413086 0.028247632026672364
f 1276 1277 1278
v 0.293275297164917 0.125673828125 0.028405550956726075
v 0.2931937198638916 0.12552162170410155 0.028440865516662597
v 0.2932417850494385 0.1254682159423828 0.028302878379821778
f 1279 1280 1281
v 0.2931448726654053 0.1849497413635254 0.007184895515441895
v 0.29310714530944826 0.18501564025878905 0.0071650781631469726
v 0.29314245033264164 0.1851678466796875 0.007246655464172363
f 1282 1283 1284
v 0.290850980758667 0.18542526245117188 0.007434891700744629
v 0.2928509883880615 0.18542526245117188 0.007434891700744629
v 0.290850980758667 0.18535425186157226 0.0072955026626586915
f 1285 1286 1287
v -0.24716745567321777 0.18253639221191406 -0.05041138744354248
v -0.24735258293151857 0.18307138442993165 -0.04998654460906982
v -0.24695779991149902 0.18326053619384766 -0.05061860179901123
f 1288 1289 1290
v -0.24668258857727052 0.1846571159362793 -0.050356818199157716
v -0.24681858253479005 0.18502038955688477 -0.04984578227996826
v -0.24652424049377442 0.18479547500610352 -0.05034966564178467
f 1291 1292 1293
v -0.24617679786682128 0.18450860977172853 -0.0507322416305542
v -0.24633390617370607 0.18492149353027343 -0.05032685375213623
v -0.24594354820251466 0.1846574592590332 -0.050715094566345216
f 1294 1295 1296
v -0.24441526603698732 0.18518152236938476 -0.05034993267059326
v -0.24397524070739746 0.18535184860229492 -0.049968634605407715
v -0.24397524070739746 0.18506776809692382 -0.05052617168426514
f 1297 1298 1299
v -0.24743129920959472 -0.19925535202026368 0.02473133945465088
v -0.24729744148254396 -0.1990446090698242 0.026393860816955567
v -0.24747410011291504 -0.1990752410888672 0.024715222358703614
f 1300 1301 1302
v -0.24429880332946777 -0.19821706771850586 0.02852971935272217
v -0.24407625389099122 -0.19779830932617187 0.028633631706237794
v -0.24494146537780762 -0.19793397903442383 0.028561562538146974
f 1303 1304 1305
v -0.2456790370941162 -0.197302360534668 0.028564318656921387
v -0.24537027549743654 -0.19700695037841798 0.028640679359436035
v -0.24585870933532716 -0.19701681137084961 0.028561572074890136
f 1306 1307 1308
v -0.24632297706604003 -0.19754606246948242 0.02832661533355713
v -0.24585870933532716 -0.19701681137084961 0.028561572074890136
v -0.24662124824523926 -0.19683258056640626 0.028260945320129394
f 1309 1310 1311
v 0.2930054836273193 0.18504796981811525 0.02781058216094971
v 0.2928509883880615 0.18535184860229492 0.027267426490783692
v 0.2928509883880615 0.18506776809692382 0.027824963569641113
f 1312 1313 1314
v -0.24745054435729982 0.18510423660278322 0.024399622917175293
v -0.24747501564025878 0.1849497413635254 0.024399622917175293
v -0.24747410011291504 0.18497472763061523 0.024714993476867675
f 1315 1316 1317
v -0.24585872840881348 0.18291618347167968 0.028561562538146974
v -0.24572305870056152 0.18205097198486328 0.028633631706237794
v -0.24553304862976075 0.1826373291015625 0.028639744758605958
f 1318 1319 1320
v -0.24682075691223146 0.18449895858764648 0.027648457527160646
v -0.24668274116516115 0.18391826629638672 0.028013876914978027
v -0.24653389167785644 0.1841515350341797 0.02803102397918701
f 1321 1322 1323
v -0.24667507362365723 0.18511957168579102 0.027114800453186035
v -0.2463332576751709 0.18492132186889648 0.027626065254211428
v -0.24578710746765137 0.1851568603515625 0.027506484031677245
f 1324 1325 1326
v -0.24397524070739746 0.184625301361084 0.028267430305480956
v 0.2928509883880615 0.184625301361084 0.028267430305480956
v -0.24397524070739746 0.18506776809692382 0.027824963569641113
f 1327 1328 1329
v -0.2473795337677002 -0.19934415817260742 0.024399622917175293
v -0.2473795337677002 -0.19934415817260742 -0.04710084056854248
v -0.24726890754699707 -0.19945476531982423 0.024399622917175293
f 1330 1331 1332
v 0.2931448726654053 0.12573972702026368 0.007184895515441895
v 0.2931448726654053 0.1849497413635254 0.007184895515441895
v 0.2932554988861084 0.12573972702026368 0.0072955026626586915
f 1333 1334 1335
v 0.2905570964813233 0.1849497413635254 0.006993893623352051
v 0.2905570964813233 0.12573972702026368 0.006993893623352051
v 0.29044647026062015 0.1849497413635254 0.006883286476135254
f 1336 1337 1338
v 0.2903509883880615 0.18194995880126955 -0.04935059642791748
v 0.2903509883880615 0.18411062240600587 -0.048808203697204594
v 0.2903509883880615 0.18453081130981447 -0.04844918346405029
f 1339 1340 1341
v -0.24397524070739746 -0.19955026626586914 0.026649397850036623
v -0.24682306480407715 -0.19955026626586914 0.0253257360458374
v -0.24694565010070801 -0.19955026626586914 0.02486906909942627
f 1342 1343 1344
v -0.24443870735168458 0.1833763313293457 0.028649395942687988
v -0.24485677909851075 0.1831632995605469 0.028649395942687988
v -0.24397524070739746 0.18344972610473634 0.028649395942687988
f 1345 1346 1347
v 0.1312206153869629 0.1869497299194336 -0.026647330284118653
v 0.1309605007171631 0.18594972610473634 -0.02728659725189209
v 0.13094907569885253 0.1869497299194336 -0.02732899761199951
f 1348 1349 1350