o GripperMast
v -0.14435365295410157 0.11962396430969238 -0.1552263946533203
v -0.1417740020751953 0.11990451622009278 -0.0052263946533203124
v -0.14435365295410157 0.11962396430969238 -0.0052263946533203124
f 1 2 3
v -0.1549557933807373 0.12600305366516112 -0.0052263946533203124
v -0.1549557933807373 0.12600305366516112 -0.1552263946533203
v -0.15349959945678712 0.12385532188415528 -0.1552263946533203
f 4 5 6
v -0.1542859230041504 0.13835820960998535 -0.0052263946533203124
v -0.1542859230041504 0.13835820960998535 -0.1552263946533203
v -0.155501371383667 0.1360656147003174 -0.1552263946533203
f 7 8 9
v -0.14305622673034668 0.143553617477417 -0.0052263946533203124
v -0.14305622673034668 0.143553617477417 -0.1552263946533203
v -0.14565107917785644 0.143553617477417 -0.1552263946533203
f 10 11 12
v -0.13320593452453613 0.1360656147003174 -0.0052263946533203124
v -0.13320593452453613 0.1360656147003174 -0.1552263946533203
v -0.13442138290405273 0.13835820960998535 -0.1552263946533203
f 13 14 15
v -0.13520770645141603 0.12385532188415528 -0.0052263946533203124
v -0.13520770645141603 0.12385532188415528 -0.1552263946533203
v -0.13375150299072266 0.12600305366516112 -0.1552263946533203
f 16 17 18
v -0.155501371383667 0.1360656147003174 -0.1552263946533203
v -0.1549557933807373 0.12600305366516112 -0.1552263946533203
v -0.1559162483215332 0.12841361808776855 -0.1552263946533203
f 19 20 21
v -0.1542859230041504 0.13835820960998535 -0.1552263946533203
v -0.13279104804992675 0.12841361808776855 -0.1552263946533203
v -0.13375150299072266 0.12600305366516112 -0.1552263946533203
f 22 23 24
v -0.13442138290405273 0.13835820960998535 -0.1552263946533203
v -0.1526060447692871 0.14033590126037598 -0.1552263946533203
v -0.13610126113891602 0.14033590126037598 -0.1552263946533203
f 25 26 27
v -0.1481852684020996 0.14299579429626466 -0.0052263946533203124
v -0.14052202796936036 0.14299579429626466 -0.0052263946533203124
v -0.14565107917785644 0.143553617477417 -0.0052263946533203124
f 28 29 30
v -0.1542859230041504 0.13835820960998535 -0.0052263946533203124
v -0.13237125015258788 0.1309742908477783 -0.0052263946533203124
v -0.13251173591613769 0.1335653476715088 -0.0052263946533203124
f 31 32 33
v -0.15161573982238769 0.12207084465026856 -0.0052263946533203124
v -0.14939232444763184 0.1207330493927002 -0.0052263946533203124
v -0.1542859230041504 0.13835820960998535 -0.0052263946533203124
f 34 35 36